<?xml version="1.0" standalone="no"?><svg xmlns:xlink="http://www.w3.org/1999/xlink" xmlns="http://www.w3.org/2000/svg" viewBox="0 0 3600 1938.4863027990584" preserveAspectRatio="xMaxYMax slice"><g transform="scale(4.2924851700599165)"><rect x="0" y="0" width="838.6857142857143" height="451.6" fill="#ffffff"/><rect x="0" y="0" width="64.51428571428572" height="64.51428571428572" fill="#ffffff"/><rect x="0" y="0" width="32.26" height="32.26" fill="#000000"/><path d="M 0 32.26 A 32.26 32.26 0 0 1 32.26 0 L 32.26 8.065 A 24.195 24.195 0 0 0 8.065 32.26" fill="#000000"/><rect x="32.26" y="0" width="32.26" height="32.26" fill="#fafbff"/><path d="M 32.26 0 A 32.26 32.26 0 0 1 64.52 32.26 L 56.455 32.26 A 24.195 24.195 0 0 0 32.26 8.065" fill="#fafbff"/><rect x="0" y="32.26" width="32.26" height="32.26" fill="#000000"/><path d="M 0 32.26 A 32.26 32.26 0 0 0 32.26 64.52 L 32.26 56.455 A 24.195 24.195 0 0 1 8.065 32.26" fill="#fafbff"/><rect x="32.26" y="32.26" width="32.26" height="32.26" fill="#fafbff"/><path d="M 32.26 64.52 A 32.26 32.26 0 0 0 64.52 32.26 L 56.455 32.26 A 24.195 24.195 0 0 1 32.26 56.455" fill="#fafbff"/><rect x="64.51428571428572" y="0" width="64.51428571428572" height="64.51428571428572" fill="#ffffff"/><rect x="64.51" y="0" width="32.26" height="32.26" fill="#000000"/><path d="M 64.51 32.26 A 32.26 32.26 0 0 1 96.77000000000001 0 L 96.77000000000001 8.065 A 24.195 24.195 0 0 0 72.575 32.26" fill="#fafbff"/><rect x="96.77" y="0" width="32.26" height="32.26" fill="#fafbff"/><path d="M 96.77 0 A 32.26 32.26 0 0 1 129.03 32.26 L 120.965 32.26 A 24.195 24.195 0 0 0 96.77 8.065" fill="#000000"/><rect x="64.51" y="32.26" width="32.26" height="32.26" fill="#000000"/><path d="M 64.51 32.26 A 32.26 32.26 0 0 0 96.77000000000001 64.52 L 96.77000000000001 56.455 A 24.195 24.195 0 0 1 72.575 32.26" fill="#000000"/><rect x="96.77" y="32.26" width="32.26" height="32.26" fill="#000000"/><path d="M 96.77 64.52 A 32.26 32.26 0 0 0 129.03 32.26 L 120.965 32.26 A 24.195 24.195 0 0 1 96.77 56.455" fill="#000000"/><rect x="129.03" y="0" width="64.51" height="64.51" fill="#000000"/><polygon points="129.03,0 193.54000000000002,0 129.03,64.51" fill="#000000"/><rect x="193.54" y="0" width="64.51" height="64.51" fill="#fafbff"/><polygon points="193.54,0 258.05,0 193.54,64.51" fill="#fafbff"/><rect x="258.06" y="0" width="64.51" height="64.51" fill="#000000"/><path d="M 258.06 0 A 64.51 64.51 0 0 1  322.57 64.51 L 258.06 0 A 64.51 64.51 0 0 0 322.57 64.51" fill="#000000"/><rect x="322.57" y="0" width="64.51" height="64.51" fill="#000000"/><polygon points="322.57,0 387.08,0 387.08,64.51" fill="#fafbff"/><rect x="387.0857142857143" y="0" width="64.51428571428572" height="64.51428571428572" fill="#ffffff"/><rect x="387.09" y="0" width="32.26" height="32.26" fill="#fafbff"/><polygon points="419.34999999999997,0 419.34999999999997,32.26 387.09,32.26" fill="#000000"/><rect x="419.34" y="0" width="32.26" height="32.26" fill="#000000"/><polygon points="419.34,0 451.59999999999997,32.26 419.34,32.26" fill="#000000"/><rect x="387.09" y="32.26" width="32.26" height="32.26" fill="#000000"/><polygon points="387.09,32.26 419.34999999999997,32.26 419.34999999999997,64.52" fill="#fafbff"/><rect x="419.34" y="32.26" width="32.26" height="32.26" fill="#fafbff"/><polygon points="419.34,32.26 451.59999999999997,32.26 419.34,64.52" fill="#000000"/><rect x="451.6" y="0" width="64.51428571428572" height="64.51428571428572" fill="#ffffff"/><rect x="451.6" y="0" width="32.26" height="32.26" fill="#fafbff"/><circle cx="467.73" cy="16.13" r="16.13" fill="#000000"/><rect x="483.86" y="0" width="32.26" height="32.26" fill="#000000"/><rect x="483.86" y="0" width="32.26" height="32.26" fill="#000000"/><rect x="451.6" y="32.26" width="32.26" height="32.26" fill="#fafbff"/><circle cx="467.73" cy="48.39" r="16.13" fill="#000000"/><rect x="483.86" y="32.26" width="32.26" height="32.26" fill="#000000"/><rect x="483.86" y="32.26" width="32.26" height="32.26" fill="#fafbff"/><rect x="516.11" y="0" width="64.51" height="64.51" fill="#000000"/><polygon points="516.11,0 580.62,0 516.11,64.51" fill="#fafbff"/><rect x="580.6285714285715" y="0" width="64.51428571428572" height="64.51428571428572" fill="#ffffff"/><rect x="580.63" y="0" width="32.26" height="32.26" fill="#000000"/><path d="M 580.63 0 A 32.26 32.26 0 0 1 612.89 32.26 L 580.63 32.26" fill="#000000"/><rect x="612.89" y="0" width="32.26" height="32.26" fill="#000000"/><path d="M 612.89 32.26 A 32.26 32.26 0 0 1  645.15 0 L 645.15 32.26" fill="#000000"/><rect x="580.63" y="32.26" width="32.26" height="32.26" fill="#fafbff"/><path d="M 580.63 64.52 A 32.26 32.26 0 0 0 612.89 32.26 L 580.63 32.26" fill="#000000"/><rect x="612.89" y="32.26" width="32.26" height="32.26" fill="#fafbff"/><path d="M 612.89 32.26 A 32.26 32.26 0 0 0 645.15 64.52 L 645.15 32.26" fill="#000000"/><rect x="645.1428571428572" y="0" width="64.51428571428572" height="64.51428571428572" fill="#ffffff"/><rect x="645.14" y="0" width="32.26" height="32.26" fill="#000000"/><polygon points="677.4,0 677.4,32.26 645.14,32.26" fill="#fafbff"/><rect x="677.4" y="0" width="32.26" height="32.26" fill="#fafbff"/><polygon points="677.4,0 709.66,32.26 677.4,32.26" fill="#fafbff"/><rect x="645.14" y="32.26" width="32.26" height="32.26" fill="#000000"/><polygon points="645.14,32.26 677.4,32.26 677.4,64.52" fill="#fafbff"/><rect x="677.4" y="32.26" width="32.26" height="32.26" fill="#fafbff"/><polygon points="677.4,32.26 709.66,32.26 677.4,64.52" fill="#fafbff"/><rect x="709.657142857143" y="0" width="64.51428571428572" height="64.51428571428572" fill="#ffffff"/><rect x="709.66" y="0" width="32.26" height="32.26" fill="#000000"/><polygon points="741.92,0 741.92,32.26 709.66,32.26" fill="#000000"/><rect x="741.91" y="0" width="32.26" height="32.26" fill="#000000"/><polygon points="741.91,0 774.17,0 741.91,32.26" fill="#fafbff"/><rect x="709.66" y="32.26" width="32.26" height="32.26" fill="#000000"/><polygon points="709.66,32.26 741.92,32.26 741.92,64.52" fill="#000000"/><rect x="741.91" y="32.26" width="32.26" height="32.26" fill="#000000"/><polygon points="741.91,32.26 774.17,64.52 741.91,64.52" fill="#fafbff"/><rect x="774.1714285714286" y="0" width="64.51428571428572" height="64.51428571428572" fill="#ffffff"/><rect x="774.17" y="0" width="32.26" height="32.26" fill="#fafbff"/><path d="M 774.17 32.26 A 32.26 32.26 0 0 1  806.43 0 L 806.43 32.26" fill="#000000"/><rect x="806.43" y="0" width="32.26" height="32.26" fill="#fafbff"/><path d="M 806.43 0 A 32.26 32.26 0 0 1 838.6899999999999 32.26 L 806.43 32.26" fill="#fafbff"/><rect x="774.17" y="32.26" width="32.26" height="32.26" fill="#fafbff"/><path d="M 774.17 32.26 A 32.26 32.26 0 0 0 806.43 64.52 L 806.43 32.26" fill="#fafbff"/><rect x="806.43" y="32.26" width="32.26" height="32.26" fill="#000000"/><path d="M 806.43 64.52 A 32.26 32.26 0 0 0 838.6899999999999 32.26 L 806.43 32.26" fill="#fafbff"/><rect x="0" y="64.51428571428572" width="64.51428571428572" height="64.51428571428572" fill="#ffffff"/><rect x="0" y="64.51" width="32.26" height="32.26" fill="#000000"/><path d="M 0 96.77000000000001 A 32.26 32.26 0 0 0 32.26 64.51 L 0 64.51" fill="#fafbff"/><rect x="32.26" y="64.51" width="32.26" height="32.26" fill="#fafbff"/><path d="M 32.26 64.51 A 32.26 32.26 0 0 0 64.52 96.77000000000001 L 64.52 64.51" fill="#000000"/><rect x="0" y="96.77" width="32.26" height="32.26" fill="#fafbff"/><path d="M 0 96.77 A 32.26 32.26 0 0 1 32.26 129.03 L 0 129.03" fill="#fafbff"/><rect x="32.26" y="96.77" width="32.26" height="32.26" fill="#fafbff"/><path d="M 32.26 129.03 A 32.26 32.26 0 0 1  64.52 96.77 L 64.52 129.03" fill="#fafbff"/><rect x="64.51428571428572" y="64.51428571428572" width="64.51428571428572" height="64.51428571428572" fill="#ffffff"/><rect x="64.51" y="64.51" width="32.26" height="32.26" fill="#fafbff"/><path d="M 64.51 96.77000000000001 A 32.26 32.26 0 0 0 96.77000000000001 64.51 L 64.51 64.51" fill="#000000"/><rect x="96.77" y="64.51" width="32.26" height="32.26" fill="#000000"/><path d="M 96.77 64.51 A 32.26 32.26 0 0 0 129.03 96.77000000000001 L 129.03 64.51" fill="#000000"/><rect x="64.51" y="96.77" width="32.26" height="32.26" fill="#fafbff"/><path d="M 64.51 96.77 A 32.26 32.26 0 0 1 96.77000000000001 129.03 L 64.51 129.03" fill="#000000"/><rect x="96.77" y="96.77" width="32.26" height="32.26" fill="#fafbff"/><path d="M 96.77 129.03 A 32.26 32.26 0 0 1  129.03 96.77 L 129.03 129.03" fill="#fafbff"/><rect x="129.02857142857144" y="64.51428571428572" width="64.51428571428572" height="64.51428571428572" fill="#ffffff"/><rect x="129.03" y="64.51" width="32.26" height="32.26" fill="#000000"/><path d="M 129.03 96.77000000000001 A 32.26 32.26 0 0 1  161.29 64.51 L 161.29 96.77000000000001" fill="#fafbff"/><rect x="161.29" y="64.51" width="32.26" height="32.26" fill="#000000"/><path d="M 161.29 64.51 A 32.26 32.26 0 0 1 193.54999999999998 96.77000000000001 L 161.29 96.77000000000001" fill="#000000"/><rect x="129.03" y="96.77" width="32.26" height="32.26" fill="#000000"/><path d="M 129.03 96.77 A 32.26 32.26 0 0 0 161.29 129.03 L 161.29 96.77" fill="#fafbff"/><rect x="161.29" y="96.77" width="32.26" height="32.26" fill="#fafbff"/><path d="M 161.29 129.03 A 32.26 32.26 0 0 0 193.54999999999998 96.77 L 161.29 96.77" fill="#000000"/><rect x="193.54285714285714" y="64.51428571428572" width="64.51428571428572" height="64.51428571428572" fill="#ffffff"/><rect x="193.54" y="64.51" width="32.26" height="32.26" fill="#000000"/><path d="M 193.54 96.77000000000001 A 32.26 32.26 0 0 0 225.79999999999998 64.51 L 193.54 64.51" fill="#000000"/><rect x="225.8" y="64.51" width="32.26" height="32.26" fill="#000000"/><path d="M 225.8 64.51 A 32.26 32.26 0 0 0 258.06 96.77000000000001 L 258.06 64.51" fill="#000000"/><rect x="193.54" y="96.77" width="32.26" height="32.26" fill="#000000"/><path d="M 193.54 96.77 A 32.26 32.26 0 0 1 225.79999999999998 129.03 L 193.54 129.03" fill="#000000"/><rect x="225.8" y="96.77" width="32.26" height="32.26" fill="#000000"/><path d="M 225.8 129.03 A 32.26 32.26 0 0 1  258.06 96.77 L 258.06 129.03" fill="#fafbff"/><rect x="258.06" y="64.51" width="64.51" height="64.51" fill="#000000"/><rect x="258.06" y="64.51" width="64.51" height="64.51" fill="#fafbff"/><rect x="322.57" y="64.51" width="64.51" height="64.51" fill="#fafbff"/><polygon points="322.57,64.51 387.08,64.51 387.08,129.02" fill="#000000"/><rect x="387.09" y="64.51" width="64.51" height="64.51" fill="#fafbff"/><polygon points="387.09,64.51 451.59999999999997,129.02 387.09,129.02" fill="#fafbff"/><rect x="451.6" y="64.51" width="64.51" height="64.51" fill="#fafbff"/><rect x="451.6" y="64.51" width="64.51" height="64.51" fill="#fafbff"/><rect x="516.1142857142858" y="64.51428571428572" width="64.51428571428572" height="64.51428571428572" fill="#ffffff"/><rect x="516.11" y="64.51" width="32.26" height="32.26" fill="#fafbff"/><path d="M 516.11 64.51 A 32.26 32.26 0 0 0 548.37 96.77000000000001 L 548.37 64.51" fill="#fafbff"/><rect x="548.37" y="64.51" width="32.26" height="32.26" fill="#fafbff"/><path d="M 548.37 96.77000000000001 A 32.26 32.26 0 0 0 580.63 64.51 L 548.37 64.51" fill="#000000"/><rect x="516.11" y="96.77" width="32.26" height="32.26" fill="#fafbff"/><path d="M 516.11 129.03 A 32.26 32.26 0 0 1  548.37 96.77 L 548.37 129.03" fill="#000000"/><rect x="548.37" y="96.77" width="32.26" height="32.26" fill="#fafbff"/><path d="M 548.37 96.77 A 32.26 32.26 0 0 1 580.63 129.03 L 548.37 129.03" fill="#fafbff"/><rect x="580.63" y="64.51" width="64.51" height="64.51" fill="#000000"/><polygon points="580.63,64.51 645.14,64.51 645.14,129.02" fill="#fafbff"/><rect x="645.14" y="64.51" width="64.51" height="64.51" fill="#000000"/><rect x="645.14" y="64.51" width="64.51" height="64.51" fill="#fafbff"/><rect x="709.66" y="64.51" width="64.51" height="64.51" fill="#000000"/><path d="M 709.66 129.02 A 64.51 64.51 0 0 0 774.17 64.51 L 709.66 64.51" fill="#fafbff"/><rect x="774.1714285714286" y="64.51428571428572" width="64.51428571428572" height="64.51428571428572" fill="#ffffff"/><rect x="774.17" y="64.51" width="32.26" height="32.26" fill="#fafbff"/><polygon points="806.43,64.51 806.43,96.77000000000001 774.17,96.77000000000001" fill="#fafbff"/><rect x="806.43" y="64.51" width="32.26" height="32.26" fill="#fafbff"/><polygon points="806.43,64.51 838.6899999999999,96.77000000000001 806.43,96.77000000000001" fill="#fafbff"/><rect x="774.17" y="96.77" width="32.26" height="32.26" fill="#000000"/><polygon points="774.17,96.77 806.43,96.77 806.43,129.03" fill="#000000"/><rect x="806.43" y="96.77" width="32.26" height="32.26" fill="#fafbff"/><polygon points="806.43,96.77 838.6899999999999,96.77 806.43,129.03" fill="#000000"/><rect x="0" y="129.02857142857144" width="64.51428571428572" height="64.51428571428572" fill="#ffffff"/><rect x="0" y="129.03" width="32.26" height="32.26" fill="#fafbff"/><path d="M 0 129.03 A 32.26 32.26 0 0 1 32.26 161.29 L 0 161.29" fill="#fafbff"/><rect x="32.26" y="129.03" width="32.26" height="32.26" fill="#000000"/><path d="M 32.26 161.29 A 32.26 32.26 0 0 1  64.52 129.03 L 64.52 161.29" fill="#000000"/><rect x="0" y="161.29" width="32.26" height="32.26" fill="#000000"/><path d="M 0 193.54999999999998 A 32.26 32.26 0 0 0 32.26 161.29 L 0 161.29" fill="#fafbff"/><rect x="32.26" y="161.29" width="32.26" height="32.26" fill="#000000"/><path d="M 32.26 161.29 A 32.26 32.26 0 0 0 64.52 193.54999999999998 L 64.52 161.29" fill="#000000"/><rect x="64.51" y="129.03" width="64.51" height="64.51" fill="#000000"/><path d="M 64.51 193.54000000000002 A 64.51 64.51 0 0 1  129.02 129.03 L 129.02 193.54000000000002" fill="#fafbff"/><rect x="129.03" y="129.03" width="64.51" height="64.51" fill="#000000"/><polygon points="129.03,129.03 193.54000000000002,129.03 193.54000000000002,193.54000000000002" fill="#000000"/><rect x="193.54285714285714" y="129.02857142857144" width="64.51428571428572" height="64.51428571428572" fill="#ffffff"/><rect x="193.54" y="129.03" width="32.26" height="32.26" fill="#fafbff"/><circle cx="209.67" cy="145.16" r="16.13" fill="#000000"/><rect x="225.8" y="129.03" width="32.26" height="32.26" fill="#000000"/><rect x="225.8" y="129.03" width="32.26" height="32.26" fill="#000000"/><rect x="193.54" y="161.29" width="32.26" height="32.26" fill="#fafbff"/><circle cx="209.67" cy="177.42" r="16.13" fill="#fafbff"/><rect x="225.8" y="161.29" width="32.26" height="32.26" fill="#000000"/><rect x="225.8" y="161.29" width="32.26" height="32.26" fill="#fafbff"/><rect x="258.0571428571429" y="129.02857142857144" width="64.51428571428572" height="64.51428571428572" fill="#ffffff"/><rect x="258.06" y="129.03" width="32.26" height="32.26" fill="#fafbff"/><path d="M 258.06 129.03 A 32.26 32.26 0 0 1 290.32 161.29 L 258.06 161.29" fill="#000000"/><rect x="290.31" y="129.03" width="32.26" height="32.26" fill="#fafbff"/><path d="M 290.31 161.29 A 32.26 32.26 0 0 1  322.57 129.03 L 322.57 161.29" fill="#fafbff"/><rect x="258.06" y="161.29" width="32.26" height="32.26" fill="#fafbff"/><path d="M 258.06 193.54999999999998 A 32.26 32.26 0 0 0 290.32 161.29 L 258.06 161.29" fill="#fafbff"/><rect x="290.31" y="161.29" width="32.26" height="32.26" fill="#fafbff"/><path d="M 290.31 161.29 A 32.26 32.26 0 0 0 322.57 193.54999999999998 L 322.57 161.29" fill="#000000"/><rect x="322.5714285714286" y="129.02857142857144" width="64.51428571428572" height="64.51428571428572" fill="#ffffff"/><rect x="322.57" y="129.03" width="32.26" height="32.26" fill="#000000"/><path d="M 322.57 129.03 A 32.26 32.26 0 0 0 354.83 161.29 L 354.83 129.03" fill="#000000"/><rect x="354.83" y="129.03" width="32.26" height="32.26" fill="#fafbff"/><path d="M 354.83 161.29 A 32.26 32.26 0 0 0 387.09 129.03 L 354.83 129.03" fill="#000000"/><rect x="322.57" y="161.29" width="32.26" height="32.26" fill="#000000"/><path d="M 322.57 193.54999999999998 A 32.26 32.26 0 0 1  354.83 161.29 L 354.83 193.54999999999998" fill="#000000"/><rect x="354.83" y="161.29" width="32.26" height="32.26" fill="#000000"/><path d="M 354.83 161.29 A 32.26 32.26 0 0 1 387.09 193.54999999999998 L 354.83 193.54999999999998" fill="#000000"/><rect x="387.09" y="129.03" width="64.51" height="64.51" fill="#000000"/><path d="M 387.09 193.54000000000002 A 64.51 64.51 0 0 0 451.59999999999997 129.03 L 387.09 129.03" fill="#fafbff"/><rect x="451.6" y="129.02857142857144" width="64.51428571428572" height="64.51428571428572" fill="#ffffff"/><rect x="451.6" y="129.03" width="32.26" height="32.26" fill="#fafbff"/><path d="M 451.6 129.03 A 32.26 32.26 0 0 0 483.86 161.29 L 483.86 129.03" fill="#000000"/><rect x="483.86" y="129.03" width="32.26" height="32.26" fill="#fafbff"/><path d="M 483.86 161.29 A 32.26 32.26 0 0 0 516.12 129.03 L 483.86 129.03" fill="#000000"/><rect x="451.6" y="161.29" width="32.26" height="32.26" fill="#fafbff"/><path d="M 451.6 193.54999999999998 A 32.26 32.26 0 0 1  483.86 161.29 L 483.86 193.54999999999998" fill="#000000"/><rect x="483.86" y="161.29" width="32.26" height="32.26" fill="#000000"/><path d="M 483.86 161.29 A 32.26 32.26 0 0 1 516.12 193.54999999999998 L 483.86 193.54999999999998" fill="#fafbff"/><rect x="516.11" y="129.03" width="64.51" height="64.51" fill="#000000"/><rect x="516.11" y="129.03" width="64.51" height="64.51" fill="#000000"/><rect x="580.63" y="129.03" width="64.51" height="64.51" fill="#fafbff"/><path d="M 580.63 193.54000000000002 A 64.51 64.51 0 0 1  645.14 129.03 L 645.14 193.54000000000002" fill="#fafbff"/><rect x="645.14" y="129.03" width="64.51" height="64.51" fill="#000000"/><polygon points="645.14,129.03 709.65,129.03 709.65,193.54000000000002" fill="#fafbff"/><rect x="709.66" y="129.03" width="64.51" height="64.51" fill="#000000"/><path d="M 709.66 193.54000000000002 A 64.51 64.51 0 0 1  774.17 129.03 L 709.66 193.54000000000002 A 64.51 64.51 0 0 0 774.17 129.03" fill="#000000"/><rect x="774.1714285714286" y="129.02857142857144" width="64.51428571428572" height="64.51428571428572" fill="#ffffff"/><rect x="774.17" y="129.03" width="32.26" height="32.26" fill="#000000"/><path d="M 774.17 129.03 A 32.26 32.26 0 0 1 806.43 161.29 L 774.17 161.29" fill="#fafbff"/><rect x="806.43" y="129.03" width="32.26" height="32.26" fill="#fafbff"/><path d="M 806.43 161.29 A 32.26 32.26 0 0 1  838.6899999999999 129.03 L 838.6899999999999 161.29" fill="#000000"/><rect x="774.17" y="161.29" width="32.26" height="32.26" fill="#000000"/><path d="M 774.17 193.54999999999998 A 32.26 32.26 0 0 0 806.43 161.29 L 774.17 161.29" fill="#000000"/><rect x="806.43" y="161.29" width="32.26" height="32.26" fill="#000000"/><path d="M 806.43 161.29 A 32.26 32.26 0 0 0 838.6899999999999 193.54999999999998 L 838.6899999999999 161.29" fill="#000000"/><rect x="0" y="193.54285714285714" width="64.51428571428572" height="64.51428571428572" fill="#ffffff"/><rect x="0" y="193.54" width="32.26" height="32.26" fill="#000000"/><polygon points="32.26,193.54 32.26,225.79999999999998 0,225.79999999999998" fill="#000000"/><rect x="32.26" y="193.54" width="32.26" height="32.26" fill="#fafbff"/><polygon points="32.26,193.54 64.52,193.54 32.26,225.79999999999998" fill="#000000"/><rect x="0" y="225.8" width="32.26" height="32.26" fill="#000000"/><polygon points="0,225.8 32.26,225.8 32.26,258.06" fill="#fafbff"/><rect x="32.26" y="225.8" width="32.26" height="32.26" fill="#fafbff"/><polygon points="32.26,225.8 64.52,258.06 32.26,258.06" fill="#fafbff"/><rect x="64.51" y="193.54" width="64.51" height="64.51" fill="#000000"/><path d="M 64.51 258.05 A 64.51 64.51 0 0 1  129.02 193.54 L 64.51 258.05 A 64.51 64.51 0 0 0 129.02 193.54" fill="#fafbff"/><rect x="129.03" y="193.54" width="64.51" height="64.51" fill="#000000"/><path d="M 129.03 193.54 A 64.51 64.51 0 0 1  193.54000000000002 258.05 L 129.03 193.54 A 64.51 64.51 0 0 0 193.54000000000002 258.05" fill="#fafbff"/><rect x="193.54" y="193.54" width="64.51" height="64.51" fill="#000000"/><polygon points="193.54,193.54 258.05,193.54 193.54,258.05" fill="#fafbff"/><rect x="258.06" y="193.54" width="64.51" height="64.51" fill="#000000"/><path d="M 258.06 193.54 A 64.51 64.51 0 0 1  322.57 258.05 L 258.06 193.54 A 64.51 64.51 0 0 0 322.57 258.05" fill="#000000"/><rect x="322.57" y="193.54" width="64.51" height="64.51" fill="#fafbff"/><path d="M 322.57 258.05 A 64.51 64.51 0 0 1  387.08 193.54 L 387.08 258.05" fill="#fafbff"/><rect x="387.0857142857143" y="193.54285714285714" width="64.51428571428572" height="64.51428571428572" fill="#ffffff"/><rect x="387.09" y="193.54" width="32.26" height="32.26" fill="#fafbff"/><polygon points="419.34999999999997,193.54 419.34999999999997,225.79999999999998 387.09,225.79999999999998" fill="#fafbff"/><rect x="419.34" y="193.54" width="32.26" height="32.26" fill="#000000"/><polygon points="419.34,193.54 451.59999999999997,193.54 419.34,225.79999999999998" fill="#000000"/><rect x="387.09" y="225.8" width="32.26" height="32.26" fill="#fafbff"/><polygon points="387.09,225.8 419.34999999999997,225.8 419.34999999999997,258.06" fill="#000000"/><rect x="419.34" y="225.8" width="32.26" height="32.26" fill="#fafbff"/><polygon points="419.34,225.8 451.59999999999997,258.06 419.34,258.06" fill="#fafbff"/><rect x="451.6" y="193.54" width="64.51" height="64.51" fill="#000000"/><polygon points="451.6,193.54 516.11,258.05 451.6,258.05" fill="#fafbff"/><rect x="516.11" y="193.54" width="64.51" height="64.51" fill="#000000"/><rect x="516.11" y="193.54" width="64.51" height="64.51" fill="#fafbff"/><rect x="580.6285714285715" y="193.54285714285714" width="64.51428571428572" height="64.51428571428572" fill="#ffffff"/><rect x="580.63" y="193.54" width="32.26" height="32.26" fill="#000000"/><path d="M 580.63 225.79999999999998 A 32.26 32.26 0 0 0 612.89 193.54 L 580.63 193.54" fill="#fafbff"/><rect x="612.89" y="193.54" width="32.26" height="32.26" fill="#000000"/><path d="M 612.89 193.54 A 32.26 32.26 0 0 0 645.15 225.79999999999998 L 645.15 193.54" fill="#000000"/><rect x="580.63" y="225.8" width="32.26" height="32.26" fill="#000000"/><path d="M 580.63 225.8 A 32.26 32.26 0 0 1 612.89 258.06 L 580.63 258.06" fill="#fafbff"/><rect x="612.89" y="225.8" width="32.26" height="32.26" fill="#fafbff"/><path d="M 612.89 258.06 A 32.26 32.26 0 0 1  645.15 225.8 L 645.15 258.06" fill="#fafbff"/><rect x="645.1428571428572" y="193.54285714285714" width="64.51428571428572" height="64.51428571428572" fill="#ffffff"/><rect x="645.14" y="193.54" width="32.26" height="32.26" fill="#fafbff"/><polygon points="677.4,193.54 677.4,225.79999999999998 645.14,225.79999999999998" fill="#000000"/><rect x="677.4" y="193.54" width="32.26" height="32.26" fill="#000000"/><polygon points="677.4,193.54 709.66,193.54 677.4,225.79999999999998" fill="#fafbff"/><rect x="645.14" y="225.8" width="32.26" height="32.26" fill="#fafbff"/><polygon points="645.14,225.8 677.4,225.8 677.4,258.06" fill="#fafbff"/><rect x="677.4" y="225.8" width="32.26" height="32.26" fill="#000000"/><polygon points="677.4,225.8 709.66,258.06 677.4,258.06" fill="#000000"/><rect x="709.657142857143" y="193.54285714285714" width="64.51428571428572" height="64.51428571428572" fill="#ffffff"/><rect x="709.66" y="193.54" width="32.26" height="32.26" fill="#fafbff"/><path d="M 709.66 225.79999999999998 A 32.26 32.26 0 0 0 741.92 193.54 L 709.66 193.54" fill="#000000"/><rect x="741.91" y="193.54" width="32.26" height="32.26" fill="#000000"/><path d="M 741.91 193.54 A 32.26 32.26 0 0 0 774.17 225.79999999999998 L 774.17 193.54" fill="#fafbff"/><rect x="709.66" y="225.8" width="32.26" height="32.26" fill="#fafbff"/><path d="M 709.66 225.8 A 32.26 32.26 0 0 1 741.92 258.06 L 709.66 258.06" fill="#000000"/><rect x="741.91" y="225.8" width="32.26" height="32.26" fill="#000000"/><path d="M 741.91 258.06 A 32.26 32.26 0 0 1  774.17 225.8 L 774.17 258.06" fill="#fafbff"/><rect x="774.17" y="193.54" width="64.51" height="64.51" fill="#fafbff"/><polygon points="774.17,193.54 838.68,193.54 838.68,258.05" fill="#fafbff"/><rect x="0" y="258.0571428571429" width="64.51428571428572" height="64.51428571428572" fill="#ffffff"/><rect x="0" y="258.06" width="32.26" height="32.26" fill="#000000"/><circle cx="16.13" cy="274.19" r="16.13" fill="#000000"/><rect x="32.26" y="258.06" width="32.26" height="32.26" fill="#fafbff"/><rect x="32.26" y="258.06" width="32.26" height="32.26" fill="#000000"/><rect x="0" y="290.31" width="32.26" height="32.26" fill="#fafbff"/><circle cx="16.13" cy="306.44" r="16.13" fill="#000000"/><rect x="32.26" y="290.31" width="32.26" height="32.26" fill="#000000"/><rect x="32.26" y="290.31" width="32.26" height="32.26" fill="#fafbff"/><rect x="64.51" y="258.06" width="64.51" height="64.51" fill="#000000"/><path d="M 64.51 322.57 A 64.51 64.51 0 0 1  129.02 258.06 L 64.51 322.57 A 64.51 64.51 0 0 0 129.02 258.06" fill="#000000"/><rect x="129.03" y="258.06" width="64.51" height="64.51" fill="#000000"/><rect x="129.03" y="258.06" width="64.51" height="64.51" fill="#000000"/><rect x="193.54285714285714" y="258.0571428571429" width="64.51428571428572" height="64.51428571428572" fill="#ffffff"/><rect x="193.54" y="258.06" width="32.26" height="32.26" fill="#fafbff"/><polygon points="225.79999999999998,258.06 225.79999999999998,290.32 193.54,290.32" fill="#000000"/><rect x="225.8" y="258.06" width="32.26" height="32.26" fill="#fafbff"/><polygon points="225.8,258.06 258.06,290.32 225.8,290.32" fill="#000000"/><rect x="193.54" y="290.31" width="32.26" height="32.26" fill="#000000"/><polygon points="193.54,290.31 225.79999999999998,290.31 225.79999999999998,322.57" fill="#fafbff"/><rect x="225.8" y="290.31" width="32.26" height="32.26" fill="#fafbff"/><polygon points="225.8,290.31 258.06,290.31 225.8,322.57" fill="#000000"/><rect x="258.0571428571429" y="258.0571428571429" width="64.51428571428572" height="64.51428571428572" fill="#ffffff"/><rect x="258.06" y="258.06" width="32.26" height="32.26" fill="#fafbff"/><path d="M 258.06 290.32 A 32.26 32.26 0 0 1  290.32 258.06 L 290.32 290.32" fill="#fafbff"/><rect x="290.31" y="258.06" width="32.26" height="32.26" fill="#fafbff"/><path d="M 290.31 258.06 A 32.26 32.26 0 0 1 322.57 290.32 L 290.31 290.32" fill="#000000"/><rect x="258.06" y="290.31" width="32.26" height="32.26" fill="#000000"/><path d="M 258.06 290.31 A 32.26 32.26 0 0 0 290.32 322.57 L 290.32 290.31" fill="#000000"/><rect x="290.31" y="290.31" width="32.26" height="32.26" fill="#000000"/><path d="M 290.31 322.57 A 32.26 32.26 0 0 0 322.57 290.31 L 290.31 290.31" fill="#fafbff"/><rect x="322.57" y="258.06" width="64.51" height="64.51" fill="#000000"/><rect x="322.57" y="258.06" width="64.51" height="64.51" fill="#000000"/><rect x="387.09" y="258.06" width="64.51" height="64.51" fill="#fafbff"/><rect x="387.09" y="258.06" width="64.51" height="64.51" fill="#fafbff"/><rect x="451.6" y="258.06" width="64.51" height="64.51" fill="#fafbff"/><path d="M 451.6 258.06 A 64.51 64.51 0 0 1 516.11 322.57 L 451.6 322.57" fill="#000000"/><rect x="516.1142857142858" y="258.0571428571429" width="64.51428571428572" height="64.51428571428572" fill="#ffffff"/><rect x="516.11" y="258.06" width="32.26" height="32.26" fill="#000000"/><polygon points="548.37,258.06 548.37,290.32 516.11,290.32" fill="#fafbff"/><rect x="548.37" y="258.06" width="32.26" height="32.26" fill="#fafbff"/><polygon points="548.37,258.06 580.63,258.06 548.37,290.32" fill="#fafbff"/><rect x="516.11" y="290.31" width="32.26" height="32.26" fill="#000000"/><polygon points="516.11,290.31 548.37,290.31 548.37,322.57" fill="#fafbff"/><rect x="548.37" y="290.31" width="32.26" height="32.26" fill="#fafbff"/><polygon points="548.37,290.31 580.63,322.57 548.37,322.57" fill="#fafbff"/><rect x="580.6285714285715" y="258.0571428571429" width="64.51428571428572" height="64.51428571428572" fill="#ffffff"/><rect x="580.63" y="258.06" width="32.26" height="32.26" fill="#fafbff"/><polygon points="612.89,258.06 612.89,290.32 580.63,290.32" fill="#000000"/><rect x="612.89" y="258.06" width="32.26" height="32.26" fill="#fafbff"/><polygon points="612.89,258.06 645.15,290.32 612.89,290.32" fill="#fafbff"/><rect x="580.63" y="290.31" width="32.26" height="32.26" fill="#fafbff"/><polygon points="580.63,290.31 612.89,290.31 580.63,322.57" fill="#000000"/><rect x="612.89" y="290.31" width="32.26" height="32.26" fill="#fafbff"/><polygon points="612.89,290.31 645.15,290.31 645.15,322.57" fill="#000000"/><rect x="645.14" y="258.06" width="64.51" height="64.51" fill="#fafbff"/><path d="M 645.14 322.57 A 64.51 64.51 0 0 0 709.65 258.06 L 645.14 258.06" fill="#fafbff"/><rect x="709.657142857143" y="258.0571428571429" width="64.51428571428572" height="64.51428571428572" fill="#ffffff"/><rect x="709.66" y="258.06" width="32.26" height="32.26" fill="#000000"/><path d="M 709.66 258.06 A 32.26 32.26 0 0 1 741.92 290.32 L 709.66 290.32" fill="#000000"/><rect x="741.91" y="258.06" width="32.26" height="32.26" fill="#000000"/><path d="M 741.91 290.32 A 32.26 32.26 0 0 1  774.17 258.06 L 774.17 290.32" fill="#fafbff"/><rect x="709.66" y="290.31" width="32.26" height="32.26" fill="#000000"/><path d="M 709.66 322.57 A 32.26 32.26 0 0 0 741.92 290.31 L 709.66 290.31" fill="#fafbff"/><rect x="741.91" y="290.31" width="32.26" height="32.26" fill="#000000"/><path d="M 741.91 290.31 A 32.26 32.26 0 0 0 774.17 322.57 L 774.17 290.31" fill="#000000"/><rect x="774.17" y="258.06" width="64.51" height="64.51" fill="#fafbff"/><rect x="774.17" y="258.06" width="64.51" height="64.51" fill="#fafbff"/><rect x="0" y="322.57" width="64.51" height="64.51" fill="#000000"/><polygon points="64.51,322.57 64.51,387.08 0,387.08" fill="#fafbff"/><rect x="64.51428571428572" y="322.5714285714286" width="64.51428571428572" height="64.51428571428572" fill="#ffffff"/><rect x="64.51" y="322.57" width="32.26" height="32.26" fill="#000000"/><path d="M 64.51 322.57 A 32.26 32.26 0 0 0 96.77000000000001 354.83 L 96.77000000000001 322.57" fill="#000000"/><rect x="96.77" y="322.57" width="32.26" height="32.26" fill="#fafbff"/><path d="M 96.77 354.83 A 32.26 32.26 0 0 0 129.03 322.57 L 96.77 322.57" fill="#fafbff"/><rect x="64.51" y="354.83" width="32.26" height="32.26" fill="#000000"/><path d="M 64.51 387.09 A 32.26 32.26 0 0 1  96.77000000000001 354.83 L 96.77000000000001 387.09" fill="#fafbff"/><rect x="96.77" y="354.83" width="32.26" height="32.26" fill="#fafbff"/><path d="M 96.77 354.83 A 32.26 32.26 0 0 1 129.03 387.09 L 96.77 387.09" fill="#fafbff"/><rect x="129.03" y="322.57" width="64.51" height="64.51" fill="#000000"/><path d="M 129.03 387.08 A 64.51 64.51 0 0 1  193.54000000000002 322.57 L 129.03 387.08 A 64.51 64.51 0 0 0 193.54000000000002 322.57" fill="#000000"/><rect x="193.54" y="322.57" width="64.51" height="64.51" fill="#fafbff"/><path d="M 193.54 387.08 A 64.51 64.51 0 0 0 258.05 322.57 L 193.54 322.57" fill="#fafbff"/><rect x="258.06" y="322.57" width="64.51" height="64.51" fill="#fafbff"/><path d="M 258.06 322.57 A 64.51 64.51 0 0 1 322.57 387.08 L 258.06 387.08" fill="#fafbff"/><rect x="322.5714285714286" y="322.5714285714286" width="64.51428571428572" height="64.51428571428572" fill="#ffffff"/><rect x="322.57" y="322.57" width="32.26" height="32.26" fill="#000000"/><path d="M 322.57 354.83 A 32.26 32.26 0 0 1 354.83 322.57 L 354.83 330.635 A 24.195 24.195 0 0 0 330.635 354.83" fill="#fafbff"/><rect x="354.83" y="322.57" width="32.26" height="32.26" fill="#000000"/><path d="M 354.83 322.57 A 32.26 32.26 0 0 1 387.09 354.83 L 379.025 354.83 A 24.195 24.195 0 0 0 354.83 330.635" fill="#000000"/><rect x="322.57" y="354.83" width="32.26" height="32.26" fill="#000000"/><path d="M 322.57 354.83 A 32.26 32.26 0 0 0 354.83 387.09 L 354.83 379.025 A 24.195 24.195 0 0 1 330.635 354.83" fill="#fafbff"/><rect x="354.83" y="354.83" width="32.26" height="32.26" fill="#000000"/><path d="M 354.83 387.09 A 32.26 32.26 0 0 0 387.09 354.83 L 379.025 354.83 A 24.195 24.195 0 0 1 354.83 379.025" fill="#fafbff"/><rect x="387.09" y="322.57" width="64.51" height="64.51" fill="#fafbff"/><rect x="387.09" y="322.57" width="64.51" height="64.51" fill="#fafbff"/><rect x="451.6" y="322.57" width="64.51" height="64.51" fill="#fafbff"/><polygon points="451.6,322.57 516.11,322.57 451.6,387.08" fill="#000000"/><rect x="516.11" y="322.57" width="64.51" height="64.51" fill="#000000"/><path d="M 516.11 387.08 A 64.51 64.51 0 0 0 580.62 322.57 L 516.11 322.57" fill="#000000"/><rect x="580.63" y="322.57" width="64.51" height="64.51" fill="#fafbff"/><polygon points="580.63,322.57 645.14,322.57 645.14,387.08" fill="#000000"/><rect x="645.1428571428572" y="322.5714285714286" width="64.51428571428572" height="64.51428571428572" fill="#ffffff"/><rect x="645.14" y="322.57" width="32.26" height="32.26" fill="#fafbff"/><path d="M 645.14 354.83 A 32.26 32.26 0 0 0 677.4 322.57 L 645.14 322.57" fill="#fafbff"/><rect x="677.4" y="322.57" width="32.26" height="32.26" fill="#fafbff"/><path d="M 677.4 322.57 A 32.26 32.26 0 0 0 709.66 354.83 L 709.66 322.57" fill="#fafbff"/><rect x="645.14" y="354.83" width="32.26" height="32.26" fill="#fafbff"/><path d="M 645.14 354.83 A 32.26 32.26 0 0 1 677.4 387.09 L 645.14 387.09" fill="#000000"/><rect x="677.4" y="354.83" width="32.26" height="32.26" fill="#fafbff"/><path d="M 677.4 387.09 A 32.26 32.26 0 0 1  709.66 354.83 L 709.66 387.09" fill="#fafbff"/><rect x="709.66" y="322.57" width="64.51" height="64.51" fill="#fafbff"/><polygon points="774.17,322.57 774.17,387.08 709.66,387.08" fill="#fafbff"/><rect x="774.17" y="322.57" width="64.51" height="64.51" fill="#000000"/><polygon points="838.68,322.57 838.68,387.08 774.17,387.08" fill="#fafbff"/><rect x="0" y="387.0857142857143" width="64.51428571428572" height="64.51428571428572" fill="#ffffff"/><rect x="0" y="387.09" width="32.26" height="32.26" fill="#000000"/><circle cx="16.13" cy="403.21999999999997" r="16.13" fill="#000000"/><rect x="32.26" y="387.09" width="32.26" height="32.26" fill="#fafbff"/><rect x="32.26" y="387.09" width="32.26" height="32.26" fill="#fafbff"/><rect x="0" y="419.34" width="32.26" height="32.26" fill="#fafbff"/><circle cx="16.13" cy="435.46999999999997" r="16.13" fill="#000000"/><rect x="32.26" y="419.34" width="32.26" height="32.26" fill="#fafbff"/><rect x="32.26" y="419.34" width="32.26" height="32.26" fill="#fafbff"/><rect x="64.51" y="387.09" width="64.51" height="64.51" fill="#fafbff"/><polygon points="64.51,387.09 129.02,387.09 129.02,451.59999999999997" fill="#fafbff"/><rect x="129.02857142857144" y="387.0857142857143" width="64.51428571428572" height="64.51428571428572" fill="#ffffff"/><rect x="129.03" y="387.09" width="32.26" height="32.26" fill="#000000"/><circle cx="145.16" cy="403.21999999999997" r="16.13" fill="#fafbff"/><rect x="161.29" y="387.09" width="32.26" height="32.26" fill="#000000"/><rect x="161.29" y="387.09" width="32.26" height="32.26" fill="#fafbff"/><rect x="129.03" y="419.34" width="32.26" height="32.26" fill="#000000"/><circle cx="145.16" cy="435.46999999999997" r="16.13" fill="#fafbff"/><rect x="161.29" y="419.34" width="32.26" height="32.26" fill="#fafbff"/><rect x="161.29" y="419.34" width="32.26" height="32.26" fill="#000000"/><rect x="193.54285714285714" y="387.0857142857143" width="64.51428571428572" height="64.51428571428572" fill="#ffffff"/><rect x="193.54" y="387.09" width="32.26" height="32.26" fill="#000000"/><path d="M 193.54 387.09 A 32.26 32.26 0 0 1 225.79999999999998 419.34999999999997 L 193.54 419.34999999999997" fill="#000000"/><rect x="225.8" y="387.09" width="32.26" height="32.26" fill="#fafbff"/><path d="M 225.8 419.34999999999997 A 32.26 32.26 0 0 1  258.06 387.09 L 258.06 419.34999999999997" fill="#000000"/><rect x="193.54" y="419.34" width="32.26" height="32.26" fill="#fafbff"/><path d="M 193.54 451.59999999999997 A 32.26 32.26 0 0 0 225.79999999999998 419.34 L 193.54 419.34" fill="#000000"/><rect x="225.8" y="419.34" width="32.26" height="32.26" fill="#fafbff"/><path d="M 225.8 419.34 A 32.26 32.26 0 0 0 258.06 451.59999999999997 L 258.06 419.34" fill="#fafbff"/><rect x="258.06" y="387.09" width="64.51" height="64.51" fill="#000000"/><polygon points="322.57,387.09 322.57,451.59999999999997 258.06,451.59999999999997" fill="#000000"/><rect x="322.57" y="387.09" width="64.51" height="64.51" fill="#fafbff"/><path d="M 322.57 451.59999999999997 A 64.51 64.51 0 0 1  387.08 387.09 L 387.08 451.59999999999997" fill="#fafbff"/><rect x="387.09" y="387.09" width="64.51" height="64.51" fill="#fafbff"/><path d="M 387.09 387.09 A 64.51 64.51 0 0 0 451.59999999999997 451.59999999999997 L 451.59999999999997 387.09" fill="#000000"/><rect x="451.6" y="387.0857142857143" width="64.51428571428572" height="64.51428571428572" fill="#ffffff"/><rect x="451.6" y="387.09" width="32.26" height="32.26" fill="#fafbff"/><circle cx="467.73" cy="403.21999999999997" r="16.13" fill="#000000"/><rect x="483.86" y="387.09" width="32.26" height="32.26" fill="#000000"/><rect x="483.86" y="387.09" width="32.26" height="32.26" fill="#000000"/><rect x="451.6" y="419.34" width="32.26" height="32.26" fill="#fafbff"/><circle cx="467.73" cy="435.46999999999997" r="16.13" fill="#fafbff"/><rect x="483.86" y="419.34" width="32.26" height="32.26" fill="#000000"/><rect x="483.86" y="419.34" width="32.26" height="32.26" fill="#000000"/><rect x="516.1142857142858" y="387.0857142857143" width="64.51428571428572" height="64.51428571428572" fill="#ffffff"/><rect x="516.11" y="387.09" width="32.26" height="32.26" fill="#fafbff"/><circle cx="532.24" cy="403.21999999999997" r="16.13" fill="#000000"/><rect x="548.37" y="387.09" width="32.26" height="32.26" fill="#fafbff"/><rect x="548.37" y="387.09" width="32.26" height="32.26" fill="#000000"/><rect x="516.11" y="419.34" width="32.26" height="32.26" fill="#fafbff"/><circle cx="532.24" cy="435.46999999999997" r="16.13" fill="#fafbff"/><rect x="548.37" y="419.34" width="32.26" height="32.26" fill="#000000"/><rect x="548.37" y="419.34" width="32.26" height="32.26" fill="#000000"/><rect x="580.6285714285715" y="387.0857142857143" width="64.51428571428572" height="64.51428571428572" fill="#ffffff"/><rect x="580.63" y="387.09" width="32.26" height="32.26" fill="#fafbff"/><path d="M 580.63 387.09 A 32.26 32.26 0 0 1 612.89 419.34999999999997 L 580.63 419.34999999999997" fill="#000000"/><rect x="612.89" y="387.09" width="32.26" height="32.26" fill="#000000"/><path d="M 612.89 419.34999999999997 A 32.26 32.26 0 0 1  645.15 387.09 L 645.15 419.34999999999997" fill="#fafbff"/><rect x="580.63" y="419.34" width="32.26" height="32.26" fill="#fafbff"/><path d="M 580.63 451.59999999999997 A 32.26 32.26 0 0 0 612.89 419.34 L 580.63 419.34" fill="#fafbff"/><rect x="612.89" y="419.34" width="32.26" height="32.26" fill="#000000"/><path d="M 612.89 419.34 A 32.26 32.26 0 0 0 645.15 451.59999999999997 L 645.15 419.34" fill="#000000"/><rect x="645.14" y="387.09" width="64.51" height="64.51" fill="#fafbff"/><polygon points="645.14,387.09 709.65,387.09 709.65,451.59999999999997" fill="#000000"/><rect x="709.66" y="387.09" width="64.51" height="64.51" fill="#fafbff"/><polygon points="709.66,387.09 774.17,451.59999999999997 709.66,451.59999999999997" fill="#fafbff"/><rect x="774.1714285714286" y="387.0857142857143" width="64.51428571428572" height="64.51428571428572" fill="#ffffff"/><rect x="774.17" y="387.09" width="32.26" height="32.26" fill="#000000"/><polygon points="806.43,387.09 806.43,419.34999999999997 774.17,419.34999999999997" fill="#fafbff"/><rect x="806.43" y="387.09" width="32.26" height="32.26" fill="#fafbff"/><polygon points="806.43,387.09 838.6899999999999,387.09 806.43,419.34999999999997" fill="#000000"/><rect x="774.17" y="419.34" width="32.26" height="32.26" fill="#000000"/><polygon points="774.17,419.34 806.43,419.34 806.43,451.59999999999997" fill="#fafbff"/><rect x="806.43" y="419.34" width="32.26" height="32.26" fill="#fafbff"/><polygon points="806.43,419.34 838.6899999999999,451.59999999999997 806.43,451.59999999999997" fill="#000000"/></g></svg>