<?xml version="1.0" standalone="no"?><svg xmlns:xlink="http://www.w3.org/1999/xlink" xmlns="http://www.w3.org/2000/svg" viewBox="0 0 3200 1723.098935821385" preserveAspectRatio="xMaxYMax slice"><g transform="scale(3.815542373386592)"><rect x="0" y="0" width="838.6857142857143" height="451.6" fill="#ffffff"/><rect x="0" y="0" width="64.51" height="64.51" fill="#fafafa"/><path d="M 0 0 A 64.51 64.51 0 0 1  64.51 64.51 L 0 0 A 64.51 64.51 0 0 0 64.51 64.51" fill="#fafafa"/><rect x="64.51428571428572" y="0" width="64.51428571428572" height="64.51428571428572" fill="#ffffff"/><rect x="64.51" y="0" width="32.26" height="32.26" fill="#fafafa"/><circle cx="80.64" cy="16.13" r="16.13" fill="#000000"/><rect x="96.77" y="0" width="32.26" height="32.26" fill="#000000"/><rect x="96.77" y="0" width="32.26" height="32.26" fill="#000000"/><rect x="64.51" y="32.26" width="32.26" height="32.26" fill="#000000"/><circle cx="80.64" cy="48.39" r="16.13" fill="#000000"/><rect x="96.77" y="32.26" width="32.26" height="32.26" fill="#fafafa"/><rect x="96.77" y="32.26" width="32.26" height="32.26" fill="#000000"/><rect x="129.03" y="0" width="64.51" height="64.51" fill="#000000"/><polygon points="193.54000000000002,0 193.54000000000002,64.51 129.03,64.51" fill="#000000"/><rect x="193.54" y="0" width="64.51" height="64.51" fill="#fafafa"/><rect x="193.54" y="0" width="64.51" height="64.51" fill="#000000"/><rect x="258.0571428571429" y="0" width="64.51428571428572" height="64.51428571428572" fill="#ffffff"/><rect x="258.06" y="0" width="32.26" height="32.26" fill="#000000"/><path d="M 258.06 0 A 32.26 32.26 0 0 1 290.32 32.26 L 258.06 32.26" fill="#fafafa"/><rect x="290.31" y="0" width="32.26" height="32.26" fill="#fafafa"/><path d="M 290.31 32.26 A 32.26 32.26 0 0 1  322.57 0 L 322.57 32.26" fill="#fafafa"/><rect x="258.06" y="32.26" width="32.26" height="32.26" fill="#fafafa"/><path d="M 258.06 64.52 A 32.26 32.26 0 0 0 290.32 32.26 L 258.06 32.26" fill="#fafafa"/><rect x="290.31" y="32.26" width="32.26" height="32.26" fill="#000000"/><path d="M 290.31 32.26 A 32.26 32.26 0 0 0 322.57 64.52 L 322.57 32.26" fill="#000000"/><rect x="322.5714285714286" y="0" width="64.51428571428572" height="64.51428571428572" fill="#ffffff"/><rect x="322.57" y="0" width="32.26" height="32.26" fill="#fafafa"/><polygon points="354.83,0 354.83,32.26 322.57,32.26" fill="#fafafa"/><rect x="354.83" y="0" width="32.26" height="32.26" fill="#000000"/><polygon points="354.83,0 387.09,32.26 354.83,32.26" fill="#000000"/><rect x="322.57" y="32.26" width="32.26" height="32.26" fill="#000000"/><polygon points="322.57,32.26 354.83,32.26 354.83,64.52" fill="#fafafa"/><rect x="354.83" y="32.26" width="32.26" height="32.26" fill="#fafafa"/><polygon points="354.83,32.26 387.09,32.26 354.83,64.52" fill="#000000"/><rect x="387.0857142857143" y="0" width="64.51428571428572" height="64.51428571428572" fill="#ffffff"/><rect x="387.09" y="0" width="32.26" height="32.26" fill="#fafafa"/><path d="M 387.09 0 A 32.26 32.26 0 0 0 419.34999999999997 32.26 L 419.34999999999997 0" fill="#fafafa"/><rect x="419.34" y="0" width="32.26" height="32.26" fill="#000000"/><path d="M 419.34 32.26 A 32.26 32.26 0 0 0 451.59999999999997 0 L 419.34 0" fill="#000000"/><rect x="387.09" y="32.26" width="32.26" height="32.26" fill="#fafafa"/><path d="M 387.09 64.52 A 32.26 32.26 0 0 1  419.34999999999997 32.26 L 419.34999999999997 64.52" fill="#000000"/><rect x="419.34" y="32.26" width="32.26" height="32.26" fill="#fafafa"/><path d="M 419.34 32.26 A 32.26 32.26 0 0 1 451.59999999999997 64.52 L 419.34 64.52" fill="#000000"/><rect x="451.6" y="0" width="64.51428571428572" height="64.51428571428572" fill="#ffffff"/><rect x="451.6" y="0" width="32.26" height="32.26" fill="#000000"/><path d="M 451.6 32.26 A 32.26 32.26 0 0 1  483.86 0 L 483.86 32.26" fill="#fafafa"/><rect x="483.86" y="0" width="32.26" height="32.26" fill="#000000"/><path d="M 483.86 0 A 32.26 32.26 0 0 1 516.12 32.26 L 483.86 32.26" fill="#fafafa"/><rect x="451.6" y="32.26" width="32.26" height="32.26" fill="#000000"/><path d="M 451.6 32.26 A 32.26 32.26 0 0 0 483.86 64.52 L 483.86 32.26" fill="#fafafa"/><rect x="483.86" y="32.26" width="32.26" height="32.26" fill="#fafafa"/><path d="M 483.86 64.52 A 32.26 32.26 0 0 0 516.12 32.26 L 483.86 32.26" fill="#fafafa"/><rect x="516.1142857142858" y="0" width="64.51428571428572" height="64.51428571428572" fill="#ffffff"/><rect x="516.11" y="0" width="32.26" height="32.26" fill="#fafafa"/><path d="M 516.11 0 A 32.26 32.26 0 0 1 548.37 32.26 L 516.11 32.26" fill="#fafafa"/><rect x="548.37" y="0" width="32.26" height="32.26" fill="#fafafa"/><path d="M 548.37 32.26 A 32.26 32.26 0 0 1  580.63 0 L 580.63 32.26" fill="#000000"/><rect x="516.11" y="32.26" width="32.26" height="32.26" fill="#000000"/><path d="M 516.11 64.52 A 32.26 32.26 0 0 0 548.37 32.26 L 516.11 32.26" fill="#fafafa"/><rect x="548.37" y="32.26" width="32.26" height="32.26" fill="#fafafa"/><path d="M 548.37 32.26 A 32.26 32.26 0 0 0 580.63 64.52 L 580.63 32.26" fill="#000000"/><rect x="580.63" y="0" width="64.51" height="64.51" fill="#000000"/><path d="M 580.63 64.51 A 64.51 64.51 0 0 1  645.14 0 L 580.63 64.51 A 64.51 64.51 0 0 0 645.14 0" fill="#fafafa"/><rect x="645.14" y="0" width="64.51" height="64.51" fill="#fafafa"/><polygon points="709.65,0 709.65,64.51 645.14,64.51" fill="#fafafa"/><rect x="709.66" y="0" width="64.51" height="64.51" fill="#000000"/><rect x="709.66" y="0" width="64.51" height="64.51" fill="#fafafa"/><rect x="774.17" y="0" width="64.51" height="64.51" fill="#fafafa"/><path d="M 774.17 0 A 64.51 64.51 0 0 1 838.68 64.51 L 774.17 64.51" fill="#000000"/><rect x="0" y="64.51" width="64.51" height="64.51" fill="#000000"/><rect x="0" y="64.51" width="64.51" height="64.51" fill="#000000"/><rect x="64.51428571428572" y="64.51428571428572" width="64.51428571428572" height="64.51428571428572" fill="#ffffff"/><rect x="64.51" y="64.51" width="32.26" height="32.26" fill="#000000"/><path d="M 64.51 96.77000000000001 A 32.26 32.26 0 0 1  96.77000000000001 64.51 L 96.77000000000001 96.77000000000001" fill="#fafafa"/><rect x="96.77" y="64.51" width="32.26" height="32.26" fill="#000000"/><path d="M 96.77 64.51 A 32.26 32.26 0 0 1 129.03 96.77000000000001 L 96.77 96.77000000000001" fill="#fafafa"/><rect x="64.51" y="96.77" width="32.26" height="32.26" fill="#fafafa"/><path d="M 64.51 96.77 A 32.26 32.26 0 0 0 96.77000000000001 129.03 L 96.77000000000001 96.77" fill="#000000"/><rect x="96.77" y="96.77" width="32.26" height="32.26" fill="#fafafa"/><path d="M 96.77 129.03 A 32.26 32.26 0 0 0 129.03 96.77 L 96.77 96.77" fill="#000000"/><rect x="129.02857142857144" y="64.51428571428572" width="64.51428571428572" height="64.51428571428572" fill="#ffffff"/><rect x="129.03" y="64.51" width="32.26" height="32.26" fill="#000000"/><polygon points="161.29,64.51 161.29,96.77000000000001 129.03,96.77000000000001" fill="#000000"/><rect x="161.29" y="64.51" width="32.26" height="32.26" fill="#fafafa"/><polygon points="161.29,64.51 193.54999999999998,64.51 161.29,96.77000000000001" fill="#000000"/><rect x="129.03" y="96.77" width="32.26" height="32.26" fill="#000000"/><polygon points="129.03,96.77 161.29,96.77 161.29,129.03" fill="#fafafa"/><rect x="161.29" y="96.77" width="32.26" height="32.26" fill="#000000"/><polygon points="161.29,96.77 193.54999999999998,129.03 161.29,129.03" fill="#fafafa"/><rect x="193.54285714285714" y="64.51428571428572" width="64.51428571428572" height="64.51428571428572" fill="#ffffff"/><rect x="193.54" y="64.51" width="32.26" height="32.26" fill="#fafafa"/><path d="M 193.54 96.77000000000001 A 32.26 32.26 0 0 0 225.79999999999998 64.51 L 193.54 64.51" fill="#fafafa"/><rect x="225.8" y="64.51" width="32.26" height="32.26" fill="#000000"/><path d="M 225.8 64.51 A 32.26 32.26 0 0 0 258.06 96.77000000000001 L 258.06 64.51" fill="#000000"/><rect x="193.54" y="96.77" width="32.26" height="32.26" fill="#fafafa"/><path d="M 193.54 96.77 A 32.26 32.26 0 0 1 225.79999999999998 129.03 L 193.54 129.03" fill="#fafafa"/><rect x="225.8" y="96.77" width="32.26" height="32.26" fill="#000000"/><path d="M 225.8 129.03 A 32.26 32.26 0 0 1  258.06 96.77 L 258.06 129.03" fill="#000000"/><rect x="258.0571428571429" y="64.51428571428572" width="64.51428571428572" height="64.51428571428572" fill="#ffffff"/><rect x="258.06" y="64.51" width="32.26" height="32.26" fill="#fafafa"/><polygon points="290.32,64.51 290.32,96.77000000000001 258.06,96.77000000000001" fill="#fafafa"/><rect x="290.31" y="64.51" width="32.26" height="32.26" fill="#fafafa"/><polygon points="290.31,64.51 322.57,96.77000000000001 290.31,96.77000000000001" fill="#000000"/><rect x="258.06" y="96.77" width="32.26" height="32.26" fill="#000000"/><polygon points="258.06,96.77 290.32,96.77 290.32,129.03" fill="#000000"/><rect x="290.31" y="96.77" width="32.26" height="32.26" fill="#000000"/><polygon points="290.31,96.77 322.57,96.77 290.31,129.03" fill="#000000"/><rect x="322.57" y="64.51" width="64.51" height="64.51" fill="#fafafa"/><path d="M 322.57 129.02 A 64.51 64.51 0 0 0 387.08 64.51 L 322.57 64.51" fill="#000000"/><rect x="387.0857142857143" y="64.51428571428572" width="64.51428571428572" height="64.51428571428572" fill="#ffffff"/><rect x="387.09" y="64.51" width="32.26" height="32.26" fill="#fafafa"/><polygon points="419.34999999999997,64.51 419.34999999999997,96.77000000000001 387.09,96.77000000000001" fill="#000000"/><rect x="419.34" y="64.51" width="32.26" height="32.26" fill="#000000"/><polygon points="419.34,64.51 451.59999999999997,64.51 419.34,96.77000000000001" fill="#000000"/><rect x="387.09" y="96.77" width="32.26" height="32.26" fill="#fafafa"/><polygon points="387.09,96.77 419.34999999999997,96.77 419.34999999999997,129.03" fill="#000000"/><rect x="419.34" y="96.77" width="32.26" height="32.26" fill="#000000"/><polygon points="419.34,96.77 451.59999999999997,129.03 419.34,129.03" fill="#000000"/><rect x="451.6" y="64.51" width="64.51" height="64.51" fill="#fafafa"/><rect x="451.6" y="64.51" width="64.51" height="64.51" fill="#fafafa"/><rect x="516.11" y="64.51" width="64.51" height="64.51" fill="#fafafa"/><rect x="516.11" y="64.51" width="64.51" height="64.51" fill="#fafafa"/><rect x="580.6285714285715" y="64.51428571428572" width="64.51428571428572" height="64.51428571428572" fill="#ffffff"/><rect x="580.63" y="64.51" width="32.26" height="32.26" fill="#000000"/><polygon points="612.89,64.51 612.89,96.77000000000001 580.63,96.77000000000001" fill="#000000"/><rect x="612.89" y="64.51" width="32.26" height="32.26" fill="#000000"/><polygon points="612.89,64.51 645.15,96.77000000000001 612.89,96.77000000000001" fill="#fafafa"/><rect x="580.63" y="96.77" width="32.26" height="32.26" fill="#fafafa"/><polygon points="580.63,96.77 612.89,96.77 580.63,129.03" fill="#000000"/><rect x="612.89" y="96.77" width="32.26" height="32.26" fill="#000000"/><polygon points="612.89,96.77 645.15,96.77 645.15,129.03" fill="#fafafa"/><rect x="645.14" y="64.51" width="64.51" height="64.51" fill="#fafafa"/><polygon points="645.14,64.51 709.65,129.02 645.14,129.02" fill="#000000"/><rect x="709.657142857143" y="64.51428571428572" width="64.51428571428572" height="64.51428571428572" fill="#ffffff"/><rect x="709.66" y="64.51" width="32.26" height="32.26" fill="#fafafa"/><path d="M 709.66 96.77000000000001 A 32.26 32.26 0 0 1  741.92 64.51 L 741.92 96.77000000000001" fill="#000000"/><rect x="741.91" y="64.51" width="32.26" height="32.26" fill="#000000"/><path d="M 741.91 64.51 A 32.26 32.26 0 0 1 774.17 96.77000000000001 L 741.91 96.77000000000001" fill="#fafafa"/><rect x="709.66" y="96.77" width="32.26" height="32.26" fill="#000000"/><path d="M 709.66 96.77 A 32.26 32.26 0 0 0 741.92 129.03 L 741.92 96.77" fill="#fafafa"/><rect x="741.91" y="96.77" width="32.26" height="32.26" fill="#fafafa"/><path d="M 741.91 129.03 A 32.26 32.26 0 0 0 774.17 96.77 L 741.91 96.77" fill="#000000"/><rect x="774.1714285714286" y="64.51428571428572" width="64.51428571428572" height="64.51428571428572" fill="#ffffff"/><rect x="774.17" y="64.51" width="32.26" height="32.26" fill="#fafafa"/><polygon points="806.43,64.51 806.43,96.77000000000001 774.17,96.77000000000001" fill="#fafafa"/><rect x="806.43" y="64.51" width="32.26" height="32.26" fill="#fafafa"/><polygon points="806.43,64.51 838.6899999999999,96.77000000000001 806.43,96.77000000000001" fill="#000000"/><rect x="774.17" y="96.77" width="32.26" height="32.26" fill="#fafafa"/><polygon points="774.17,96.77 806.43,96.77 806.43,129.03" fill="#000000"/><rect x="806.43" y="96.77" width="32.26" height="32.26" fill="#000000"/><polygon points="806.43,96.77 838.6899999999999,96.77 806.43,129.03" fill="#fafafa"/><rect x="0" y="129.02857142857144" width="64.51428571428572" height="64.51428571428572" fill="#ffffff"/><rect x="0" y="129.03" width="32.26" height="32.26" fill="#000000"/><polygon points="32.26,129.03 32.26,161.29 0,161.29" fill="#000000"/><rect x="32.26" y="129.03" width="32.26" height="32.26" fill="#000000"/><polygon points="32.26,129.03 64.52,129.03 32.26,161.29" fill="#000000"/><rect x="0" y="161.29" width="32.26" height="32.26" fill="#000000"/><polygon points="0,161.29 32.26,161.29 32.26,193.54999999999998" fill="#fafafa"/><rect x="32.26" y="161.29" width="32.26" height="32.26" fill="#fafafa"/><polygon points="32.26,161.29 64.52,193.54999999999998 32.26,193.54999999999998" fill="#000000"/><rect x="64.51" y="129.03" width="64.51" height="64.51" fill="#000000"/><path d="M 64.51 193.54000000000002 A 64.51 64.51 0 0 1  129.02 129.03 L 129.02 193.54000000000002" fill="#fafafa"/><rect x="129.02857142857144" y="129.02857142857144" width="64.51428571428572" height="64.51428571428572" fill="#ffffff"/><rect x="129.03" y="129.03" width="32.26" height="32.26" fill="#000000"/><polygon points="161.29,129.03 161.29,161.29 129.03,161.29" fill="#fafafa"/><rect x="161.29" y="129.03" width="32.26" height="32.26" fill="#000000"/><polygon points="161.29,129.03 193.54999999999998,161.29 161.29,161.29" fill="#000000"/><rect x="129.03" y="161.29" width="32.26" height="32.26" fill="#000000"/><polygon points="129.03,161.29 161.29,161.29 161.29,193.54999999999998" fill="#fafafa"/><rect x="161.29" y="161.29" width="32.26" height="32.26" fill="#fafafa"/><polygon points="161.29,161.29 193.54999999999998,161.29 161.29,193.54999999999998" fill="#fafafa"/><rect x="193.54" y="129.03" width="64.51" height="64.51" fill="#000000"/><rect x="193.54" y="129.03" width="64.51" height="64.51" fill="#fafafa"/><rect x="258.0571428571429" y="129.02857142857144" width="64.51428571428572" height="64.51428571428572" fill="#ffffff"/><rect x="258.06" y="129.03" width="32.26" height="32.26" fill="#000000"/><path d="M 258.06 161.29 A 32.26 32.26 0 0 1 290.32 129.03 L 290.32 137.095 A 24.195 24.195 0 0 0 266.125 161.29" fill="#fafafa"/><rect x="290.31" y="129.03" width="32.26" height="32.26" fill="#fafafa"/><path d="M 290.31 129.03 A 32.26 32.26 0 0 1 322.57 161.29 L 314.505 161.29 A 24.195 24.195 0 0 0 290.31 137.095" fill="#fafafa"/><rect x="258.06" y="161.29" width="32.26" height="32.26" fill="#fafafa"/><path d="M 258.06 161.29 A 32.26 32.26 0 0 0 290.32 193.54999999999998 L 290.32 185.48499999999999 A 24.195 24.195 0 0 1 266.125 161.29" fill="#fafafa"/><rect x="290.31" y="161.29" width="32.26" height="32.26" fill="#000000"/><path d="M 290.31 193.54999999999998 A 32.26 32.26 0 0 0 322.57 161.29 L 314.505 161.29 A 24.195 24.195 0 0 1 290.31 185.48499999999999" fill="#000000"/><rect x="322.57" y="129.03" width="64.51" height="64.51" fill="#fafafa"/><path d="M 322.57 193.54000000000002 A 64.51 64.51 0 0 1  387.08 129.03 L 387.08 193.54000000000002" fill="#fafafa"/><rect x="387.0857142857143" y="129.02857142857144" width="64.51428571428572" height="64.51428571428572" fill="#ffffff"/><rect x="387.09" y="129.03" width="32.26" height="32.26" fill="#fafafa"/><path d="M 387.09 129.03 A 32.26 32.26 0 0 1 419.34999999999997 161.29 L 387.09 161.29" fill="#000000"/><rect x="419.34" y="129.03" width="32.26" height="32.26" fill="#fafafa"/><path d="M 419.34 161.29 A 32.26 32.26 0 0 1  451.59999999999997 129.03 L 451.59999999999997 161.29" fill="#fafafa"/><rect x="387.09" y="161.29" width="32.26" height="32.26" fill="#000000"/><path d="M 387.09 193.54999999999998 A 32.26 32.26 0 0 0 419.34999999999997 161.29 L 387.09 161.29" fill="#000000"/><rect x="419.34" y="161.29" width="32.26" height="32.26" fill="#fafafa"/><path d="M 419.34 161.29 A 32.26 32.26 0 0 0 451.59999999999997 193.54999999999998 L 451.59999999999997 161.29" fill="#000000"/><rect x="451.6" y="129.03" width="64.51" height="64.51" fill="#fafafa"/><polygon points="451.6,129.03 516.11,129.03 516.11,193.54000000000002" fill="#fafafa"/><rect x="516.1142857142858" y="129.02857142857144" width="64.51428571428572" height="64.51428571428572" fill="#ffffff"/><rect x="516.11" y="129.03" width="32.26" height="32.26" fill="#fafafa"/><polygon points="548.37,129.03 548.37,161.29 516.11,161.29" fill="#fafafa"/><rect x="548.37" y="129.03" width="32.26" height="32.26" fill="#000000"/><polygon points="548.37,129.03 580.63,161.29 548.37,161.29" fill="#fafafa"/><rect x="516.11" y="161.29" width="32.26" height="32.26" fill="#000000"/><polygon points="516.11,161.29 548.37,161.29 548.37,193.54999999999998" fill="#000000"/><rect x="548.37" y="161.29" width="32.26" height="32.26" fill="#000000"/><polygon points="548.37,161.29 580.63,161.29 548.37,193.54999999999998" fill="#000000"/><rect x="580.63" y="129.03" width="64.51" height="64.51" fill="#000000"/><rect x="580.63" y="129.03" width="64.51" height="64.51" fill="#000000"/><rect x="645.14" y="129.03" width="64.51" height="64.51" fill="#fafafa"/><rect x="645.14" y="129.03" width="64.51" height="64.51" fill="#fafafa"/><rect x="709.657142857143" y="129.02857142857144" width="64.51428571428572" height="64.51428571428572" fill="#ffffff"/><rect x="709.66" y="129.03" width="32.26" height="32.26" fill="#000000"/><path d="M 709.66 161.29 A 32.26 32.26 0 0 1 741.92 129.03 L 741.92 137.095 A 24.195 24.195 0 0 0 717.725 161.29" fill="#000000"/><rect x="741.91" y="129.03" width="32.26" height="32.26" fill="#000000"/><path d="M 741.91 129.03 A 32.26 32.26 0 0 1 774.17 161.29 L 766.105 161.29 A 24.195 24.195 0 0 0 741.91 137.095" fill="#000000"/><rect x="709.66" y="161.29" width="32.26" height="32.26" fill="#fafafa"/><path d="M 709.66 161.29 A 32.26 32.26 0 0 0 741.92 193.54999999999998 L 741.92 185.48499999999999 A 24.195 24.195 0 0 1 717.725 161.29" fill="#fafafa"/><rect x="741.91" y="161.29" width="32.26" height="32.26" fill="#fafafa"/><path d="M 741.91 193.54999999999998 A 32.26 32.26 0 0 0 774.17 161.29 L 766.105 161.29 A 24.195 24.195 0 0 1 741.91 185.48499999999999" fill="#000000"/><rect x="774.17" y="129.03" width="64.51" height="64.51" fill="#fafafa"/><path d="M 774.17 193.54000000000002 A 64.51 64.51 0 0 1  838.68 129.03 L 838.68 193.54000000000002" fill="#fafafa"/><rect x="0" y="193.54" width="64.51" height="64.51" fill="#fafafa"/><polygon points="0,193.54 64.51,193.54 64.51,258.05" fill="#fafafa"/><rect x="64.51" y="193.54" width="64.51" height="64.51" fill="#fafafa"/><polygon points="64.51,193.54 129.02,193.54 129.02,258.05" fill="#000000"/><rect x="129.03" y="193.54" width="64.51" height="64.51" fill="#fafafa"/><polygon points="129.03,193.54 193.54000000000002,193.54 193.54000000000002,258.05" fill="#000000"/><rect x="193.54285714285714" y="193.54285714285714" width="64.51428571428572" height="64.51428571428572" fill="#ffffff"/><rect x="193.54" y="193.54" width="32.26" height="32.26" fill="#fafafa"/><polygon points="225.79999999999998,193.54 225.79999999999998,225.79999999999998 193.54,225.79999999999998" fill="#fafafa"/><rect x="225.8" y="193.54" width="32.26" height="32.26" fill="#000000"/><polygon points="225.8,193.54 258.06,225.79999999999998 225.8,225.79999999999998" fill="#fafafa"/><rect x="193.54" y="225.8" width="32.26" height="32.26" fill="#000000"/><polygon points="193.54,225.8 225.79999999999998,225.8 193.54,258.06" fill="#fafafa"/><rect x="225.8" y="225.8" width="32.26" height="32.26" fill="#fafafa"/><polygon points="225.8,225.8 258.06,225.8 258.06,258.06" fill="#000000"/><rect x="258.06" y="193.54" width="64.51" height="64.51" fill="#fafafa"/><path d="M 258.06 258.05 A 64.51 64.51 0 0 1  322.57 193.54 L 258.06 258.05 A 64.51 64.51 0 0 0 322.57 193.54" fill="#fafafa"/><rect x="322.5714285714286" y="193.54285714285714" width="64.51428571428572" height="64.51428571428572" fill="#ffffff"/><rect x="322.57" y="193.54" width="32.26" height="32.26" fill="#fafafa"/><path d="M 322.57 193.54 A 32.26 32.26 0 0 0 354.83 225.79999999999998 L 354.83 193.54" fill="#fafafa"/><rect x="354.83" y="193.54" width="32.26" height="32.26" fill="#fafafa"/><path d="M 354.83 225.79999999999998 A 32.26 32.26 0 0 0 387.09 193.54 L 354.83 193.54" fill="#fafafa"/><rect x="322.57" y="225.8" width="32.26" height="32.26" fill="#fafafa"/><path d="M 322.57 258.06 A 32.26 32.26 0 0 1  354.83 225.8 L 354.83 258.06" fill="#fafafa"/><rect x="354.83" y="225.8" width="32.26" height="32.26" fill="#000000"/><path d="M 354.83 225.8 A 32.26 32.26 0 0 1 387.09 258.06 L 354.83 258.06" fill="#000000"/><rect x="387.0857142857143" y="193.54285714285714" width="64.51428571428572" height="64.51428571428572" fill="#ffffff"/><rect x="387.09" y="193.54" width="32.26" height="32.26" fill="#000000"/><path d="M 387.09 225.79999999999998 A 32.26 32.26 0 0 1  419.34999999999997 193.54 L 419.34999999999997 225.79999999999998" fill="#000000"/><rect x="419.34" y="193.54" width="32.26" height="32.26" fill="#000000"/><path d="M 419.34 193.54 A 32.26 32.26 0 0 1 451.59999999999997 225.79999999999998 L 419.34 225.79999999999998" fill="#000000"/><rect x="387.09" y="225.8" width="32.26" height="32.26" fill="#000000"/><path d="M 387.09 225.8 A 32.26 32.26 0 0 0 419.34999999999997 258.06 L 419.34999999999997 225.8" fill="#fafafa"/><rect x="419.34" y="225.8" width="32.26" height="32.26" fill="#000000"/><path d="M 419.34 258.06 A 32.26 32.26 0 0 0 451.59999999999997 225.8 L 419.34 225.8" fill="#fafafa"/><rect x="451.6" y="193.54285714285714" width="64.51428571428572" height="64.51428571428572" fill="#ffffff"/><rect x="451.6" y="193.54" width="32.26" height="32.26" fill="#000000"/><path d="M 451.6 193.54 A 32.26 32.26 0 0 0 483.86 225.79999999999998 L 483.86 193.54" fill="#fafafa"/><rect x="483.86" y="193.54" width="32.26" height="32.26" fill="#000000"/><path d="M 483.86 225.79999999999998 A 32.26 32.26 0 0 0 516.12 193.54 L 483.86 193.54" fill="#fafafa"/><rect x="451.6" y="225.8" width="32.26" height="32.26" fill="#000000"/><path d="M 451.6 258.06 A 32.26 32.26 0 0 1  483.86 225.8 L 483.86 258.06" fill="#000000"/><rect x="483.86" y="225.8" width="32.26" height="32.26" fill="#000000"/><path d="M 483.86 225.8 A 32.26 32.26 0 0 1 516.12 258.06 L 483.86 258.06" fill="#000000"/><rect x="516.1142857142858" y="193.54285714285714" width="64.51428571428572" height="64.51428571428572" fill="#ffffff"/><rect x="516.11" y="193.54" width="32.26" height="32.26" fill="#000000"/><path d="M 516.11 225.79999999999998 A 32.26 32.26 0 0 1  548.37 193.54 L 548.37 225.79999999999998" fill="#fafafa"/><rect x="548.37" y="193.54" width="32.26" height="32.26" fill="#000000"/><path d="M 548.37 193.54 A 32.26 32.26 0 0 1 580.63 225.79999999999998 L 548.37 225.79999999999998" fill="#000000"/><rect x="516.11" y="225.8" width="32.26" height="32.26" fill="#fafafa"/><path d="M 516.11 225.8 A 32.26 32.26 0 0 0 548.37 258.06 L 548.37 225.8" fill="#fafafa"/><rect x="548.37" y="225.8" width="32.26" height="32.26" fill="#fafafa"/><path d="M 548.37 258.06 A 32.26 32.26 0 0 0 580.63 225.8 L 548.37 225.8" fill="#fafafa"/><rect x="580.6285714285715" y="193.54285714285714" width="64.51428571428572" height="64.51428571428572" fill="#ffffff"/><rect x="580.63" y="193.54" width="32.26" height="32.26" fill="#000000"/><polygon points="612.89,193.54 612.89,225.79999999999998 580.63,225.79999999999998" fill="#fafafa"/><rect x="612.89" y="193.54" width="32.26" height="32.26" fill="#000000"/><polygon points="612.89,193.54 645.15,193.54 612.89,225.79999999999998" fill="#000000"/><rect x="580.63" y="225.8" width="32.26" height="32.26" fill="#fafafa"/><polygon points="580.63,225.8 612.89,225.8 612.89,258.06" fill="#000000"/><rect x="612.89" y="225.8" width="32.26" height="32.26" fill="#000000"/><polygon points="612.89,225.8 645.15,258.06 612.89,258.06" fill="#000000"/><rect x="645.1428571428572" y="193.54285714285714" width="64.51428571428572" height="64.51428571428572" fill="#ffffff"/><rect x="645.14" y="193.54" width="32.26" height="32.26" fill="#000000"/><polygon points="677.4,193.54 677.4,225.79999999999998 645.14,225.79999999999998" fill="#000000"/><rect x="677.4" y="193.54" width="32.26" height="32.26" fill="#fafafa"/><polygon points="677.4,193.54 709.66,225.79999999999998 677.4,225.79999999999998" fill="#fafafa"/><rect x="645.14" y="225.8" width="32.26" height="32.26" fill="#000000"/><polygon points="645.14,225.8 677.4,225.8 645.14,258.06" fill="#000000"/><rect x="677.4" y="225.8" width="32.26" height="32.26" fill="#000000"/><polygon points="677.4,225.8 709.66,225.8 709.66,258.06" fill="#000000"/><rect x="709.657142857143" y="193.54285714285714" width="64.51428571428572" height="64.51428571428572" fill="#ffffff"/><rect x="709.66" y="193.54" width="32.26" height="32.26" fill="#fafafa"/><path d="M 709.66 193.54 A 32.26 32.26 0 0 0 741.92 225.79999999999998 L 741.92 193.54" fill="#000000"/><rect x="741.91" y="193.54" width="32.26" height="32.26" fill="#fafafa"/><path d="M 741.91 225.79999999999998 A 32.26 32.26 0 0 0 774.17 193.54 L 741.91 193.54" fill="#fafafa"/><rect x="709.66" y="225.8" width="32.26" height="32.26" fill="#000000"/><path d="M 709.66 258.06 A 32.26 32.26 0 0 1  741.92 225.8 L 741.92 258.06" fill="#fafafa"/><rect x="741.91" y="225.8" width="32.26" height="32.26" fill="#fafafa"/><path d="M 741.91 225.8 A 32.26 32.26 0 0 1 774.17 258.06 L 741.91 258.06" fill="#000000"/><rect x="774.17" y="193.54" width="64.51" height="64.51" fill="#000000"/><path d="M 774.17 258.05 A 64.51 64.51 0 0 1  838.68 193.54 L 838.68 258.05" fill="#fafafa"/><rect x="0" y="258.06" width="64.51" height="64.51" fill="#fafafa"/><polygon points="0,258.06 64.51,258.06 64.51,322.57" fill="#000000"/><rect x="64.51428571428572" y="258.0571428571429" width="64.51428571428572" height="64.51428571428572" fill="#ffffff"/><rect x="64.51" y="258.06" width="32.26" height="32.26" fill="#fafafa"/><polygon points="96.77000000000001,258.06 96.77000000000001,290.32 64.51,290.32" fill="#fafafa"/><rect x="96.77" y="258.06" width="32.26" height="32.26" fill="#000000"/><polygon points="96.77,258.06 129.03,290.32 96.77,290.32" fill="#fafafa"/><rect x="64.51" y="290.31" width="32.26" height="32.26" fill="#fafafa"/><polygon points="64.51,290.31 96.77000000000001,290.31 96.77000000000001,322.57" fill="#fafafa"/><rect x="96.77" y="290.31" width="32.26" height="32.26" fill="#fafafa"/><polygon points="96.77,290.31 129.03,290.31 96.77,322.57" fill="#000000"/><rect x="129.03" y="258.06" width="64.51" height="64.51" fill="#000000"/><rect x="129.03" y="258.06" width="64.51" height="64.51" fill="#fafafa"/><rect x="193.54" y="258.06" width="64.51" height="64.51" fill="#fafafa"/><rect x="193.54" y="258.06" width="64.51" height="64.51" fill="#000000"/><rect x="258.06" y="258.06" width="64.51" height="64.51" fill="#fafafa"/><polygon points="322.57,258.06 322.57,322.57 258.06,322.57" fill="#fafafa"/><rect x="322.5714285714286" y="258.0571428571429" width="64.51428571428572" height="64.51428571428572" fill="#ffffff"/><rect x="322.57" y="258.06" width="32.26" height="32.26" fill="#000000"/><path d="M 322.57 290.32 A 32.26 32.26 0 0 0 354.83 258.06 L 322.57 258.06" fill="#fafafa"/><rect x="354.83" y="258.06" width="32.26" height="32.26" fill="#000000"/><path d="M 354.83 258.06 A 32.26 32.26 0 0 0 387.09 290.32 L 387.09 258.06" fill="#fafafa"/><rect x="322.57" y="290.31" width="32.26" height="32.26" fill="#fafafa"/><path d="M 322.57 290.31 A 32.26 32.26 0 0 1 354.83 322.57 L 322.57 322.57" fill="#fafafa"/><rect x="354.83" y="290.31" width="32.26" height="32.26" fill="#000000"/><path d="M 354.83 322.57 A 32.26 32.26 0 0 1  387.09 290.31 L 387.09 322.57" fill="#fafafa"/><rect x="387.0857142857143" y="258.0571428571429" width="64.51428571428572" height="64.51428571428572" fill="#ffffff"/><rect x="387.09" y="258.06" width="32.26" height="32.26" fill="#fafafa"/><path d="M 387.09 258.06 A 32.26 32.26 0 0 1 419.34999999999997 290.32 L 387.09 290.32" fill="#000000"/><rect x="419.34" y="258.06" width="32.26" height="32.26" fill="#000000"/><path d="M 419.34 290.32 A 32.26 32.26 0 0 1  451.59999999999997 258.06 L 451.59999999999997 290.32" fill="#000000"/><rect x="387.09" y="290.31" width="32.26" height="32.26" fill="#fafafa"/><path d="M 387.09 322.57 A 32.26 32.26 0 0 0 419.34999999999997 290.31 L 387.09 290.31" fill="#000000"/><rect x="419.34" y="290.31" width="32.26" height="32.26" fill="#000000"/><path d="M 419.34 290.31 A 32.26 32.26 0 0 0 451.59999999999997 322.57 L 451.59999999999997 290.31" fill="#fafafa"/><rect x="451.6" y="258.06" width="64.51" height="64.51" fill="#fafafa"/><path d="M 451.6 322.57 A 64.51 64.51 0 0 1  516.11 258.06 L 451.6 322.57 A 64.51 64.51 0 0 0 516.11 258.06" fill="#000000"/><rect x="516.11" y="258.06" width="64.51" height="64.51" fill="#000000"/><rect x="516.11" y="258.06" width="64.51" height="64.51" fill="#000000"/><rect x="580.63" y="258.06" width="64.51" height="64.51" fill="#000000"/><rect x="580.63" y="258.06" width="64.51" height="64.51" fill="#fafafa"/><rect x="645.14" y="258.06" width="64.51" height="64.51" fill="#000000"/><path d="M 645.14 322.57 A 64.51 64.51 0 0 1  709.65 258.06 L 645.14 322.57 A 64.51 64.51 0 0 0 709.65 258.06" fill="#000000"/><rect x="709.657142857143" y="258.0571428571429" width="64.51428571428572" height="64.51428571428572" fill="#ffffff"/><rect x="709.66" y="258.06" width="32.26" height="32.26" fill="#000000"/><path d="M 709.66 290.32 A 32.26 32.26 0 0 1  741.92 258.06 L 741.92 290.32" fill="#000000"/><rect x="741.91" y="258.06" width="32.26" height="32.26" fill="#000000"/><path d="M 741.91 258.06 A 32.26 32.26 0 0 1 774.17 290.32 L 741.91 290.32" fill="#fafafa"/><rect x="709.66" y="290.31" width="32.26" height="32.26" fill="#fafafa"/><path d="M 709.66 290.31 A 32.26 32.26 0 0 0 741.92 322.57 L 741.92 290.31" fill="#000000"/><rect x="741.91" y="290.31" width="32.26" height="32.26" fill="#000000"/><path d="M 741.91 322.57 A 32.26 32.26 0 0 0 774.17 290.31 L 741.91 290.31" fill="#fafafa"/><rect x="774.17" y="258.06" width="64.51" height="64.51" fill="#fafafa"/><path d="M 774.17 258.06 A 64.51 64.51 0 0 0 838.68 322.57 L 838.68 258.06" fill="#000000"/><rect x="0" y="322.5714285714286" width="64.51428571428572" height="64.51428571428572" fill="#ffffff"/><rect x="0" y="322.57" width="32.26" height="32.26" fill="#fafafa"/><path d="M 0 354.83 A 32.26 32.26 0 0 1 32.26 322.57 L 32.26 330.635 A 24.195 24.195 0 0 0 8.065 354.83" fill="#fafafa"/><rect x="32.26" y="322.57" width="32.26" height="32.26" fill="#fafafa"/><path d="M 32.26 322.57 A 32.26 32.26 0 0 1 64.52 354.83 L 56.455 354.83 A 24.195 24.195 0 0 0 32.26 330.635" fill="#fafafa"/><rect x="0" y="354.83" width="32.26" height="32.26" fill="#000000"/><path d="M 0 354.83 A 32.26 32.26 0 0 0 32.26 387.09 L 32.26 379.025 A 24.195 24.195 0 0 1 8.065 354.83" fill="#000000"/><rect x="32.26" y="354.83" width="32.26" height="32.26" fill="#fafafa"/><path d="M 32.26 387.09 A 32.26 32.26 0 0 0 64.52 354.83 L 56.455 354.83 A 24.195 24.195 0 0 1 32.26 379.025" fill="#fafafa"/><rect x="64.51428571428572" y="322.5714285714286" width="64.51428571428572" height="64.51428571428572" fill="#ffffff"/><rect x="64.51" y="322.57" width="32.26" height="32.26" fill="#fafafa"/><path d="M 64.51 354.83 A 32.26 32.26 0 0 1 96.77000000000001 322.57 L 96.77000000000001 330.635 A 24.195 24.195 0 0 0 72.575 354.83" fill="#000000"/><rect x="96.77" y="322.57" width="32.26" height="32.26" fill="#fafafa"/><path d="M 96.77 322.57 A 32.26 32.26 0 0 1 129.03 354.83 L 120.965 354.83 A 24.195 24.195 0 0 0 96.77 330.635" fill="#000000"/><rect x="64.51" y="354.83" width="32.26" height="32.26" fill="#fafafa"/><path d="M 64.51 354.83 A 32.26 32.26 0 0 0 96.77000000000001 387.09 L 96.77000000000001 379.025 A 24.195 24.195 0 0 1 72.575 354.83" fill="#fafafa"/><rect x="96.77" y="354.83" width="32.26" height="32.26" fill="#fafafa"/><path d="M 96.77 387.09 A 32.26 32.26 0 0 0 129.03 354.83 L 120.965 354.83 A 24.195 24.195 0 0 1 96.77 379.025" fill="#000000"/><rect x="129.02857142857144" y="322.5714285714286" width="64.51428571428572" height="64.51428571428572" fill="#ffffff"/><rect x="129.03" y="322.57" width="32.26" height="32.26" fill="#fafafa"/><polygon points="161.29,322.57 161.29,354.83 129.03,354.83" fill="#fafafa"/><rect x="161.29" y="322.57" width="32.26" height="32.26" fill="#000000"/><polygon points="161.29,322.57 193.54999999999998,354.83 161.29,354.83" fill="#000000"/><rect x="129.03" y="354.83" width="32.26" height="32.26" fill="#fafafa"/><polygon points="129.03,354.83 161.29,354.83 161.29,387.09" fill="#000000"/><rect x="161.29" y="354.83" width="32.26" height="32.26" fill="#000000"/><polygon points="161.29,354.83 193.54999999999998,354.83 161.29,387.09" fill="#000000"/><rect x="193.54" y="322.57" width="64.51" height="64.51" fill="#000000"/><polygon points="193.54,322.57 258.05,322.57 258.05,387.08" fill="#000000"/><rect x="258.0571428571429" y="322.5714285714286" width="64.51428571428572" height="64.51428571428572" fill="#ffffff"/><rect x="258.06" y="322.57" width="32.26" height="32.26" fill="#000000"/><polygon points="290.32,322.57 290.32,354.83 258.06,354.83" fill="#000000"/><rect x="290.31" y="322.57" width="32.26" height="32.26" fill="#fafafa"/><polygon points="290.31,322.57 322.57,354.83 290.31,354.83" fill="#000000"/><rect x="258.06" y="354.83" width="32.26" height="32.26" fill="#fafafa"/><polygon points="258.06,354.83 290.32,354.83 258.06,387.09" fill="#fafafa"/><rect x="290.31" y="354.83" width="32.26" height="32.26" fill="#fafafa"/><polygon points="290.31,354.83 322.57,354.83 322.57,387.09" fill="#fafafa"/><rect x="322.57" y="322.57" width="64.51" height="64.51" fill="#000000"/><polygon points="387.08,322.57 387.08,387.08 322.57,387.08" fill="#fafafa"/><rect x="387.09" y="322.57" width="64.51" height="64.51" fill="#000000"/><path d="M 387.09 322.57 A 64.51 64.51 0 0 1 451.59999999999997 387.08 L 387.09 387.08" fill="#fafafa"/><rect x="451.6" y="322.57" width="64.51" height="64.51" fill="#000000"/><path d="M 451.6 387.08 A 64.51 64.51 0 0 0 516.11 322.57 L 451.6 322.57" fill="#fafafa"/><rect x="516.1142857142858" y="322.5714285714286" width="64.51428571428572" height="64.51428571428572" fill="#ffffff"/><rect x="516.11" y="322.57" width="32.26" height="32.26" fill="#fafafa"/><path d="M 516.11 354.83 A 32.26 32.26 0 0 0 548.37 322.57 L 516.11 322.57" fill="#000000"/><rect x="548.37" y="322.57" width="32.26" height="32.26" fill="#fafafa"/><path d="M 548.37 322.57 A 32.26 32.26 0 0 0 580.63 354.83 L 580.63 322.57" fill="#000000"/><rect x="516.11" y="354.83" width="32.26" height="32.26" fill="#fafafa"/><path d="M 516.11 354.83 A 32.26 32.26 0 0 1 548.37 387.09 L 516.11 387.09" fill="#000000"/><rect x="548.37" y="354.83" width="32.26" height="32.26" fill="#fafafa"/><path d="M 548.37 387.09 A 32.26 32.26 0 0 1  580.63 354.83 L 580.63 387.09" fill="#000000"/><rect x="580.63" y="322.57" width="64.51" height="64.51" fill="#000000"/><path d="M 580.63 387.08 A 64.51 64.51 0 0 1  645.14 322.57 L 645.14 387.08" fill="#000000"/><rect x="645.14" y="322.57" width="64.51" height="64.51" fill="#000000"/><rect x="645.14" y="322.57" width="64.51" height="64.51" fill="#000000"/><rect x="709.657142857143" y="322.5714285714286" width="64.51428571428572" height="64.51428571428572" fill="#ffffff"/><rect x="709.66" y="322.57" width="32.26" height="32.26" fill="#fafafa"/><path d="M 709.66 354.83 A 32.26 32.26 0 0 1 741.92 322.57 L 741.92 330.635 A 24.195 24.195 0 0 0 717.725 354.83" fill="#fafafa"/><rect x="741.91" y="322.57" width="32.26" height="32.26" fill="#fafafa"/><path d="M 741.91 322.57 A 32.26 32.26 0 0 1 774.17 354.83 L 766.105 354.83 A 24.195 24.195 0 0 0 741.91 330.635" fill="#000000"/><rect x="709.66" y="354.83" width="32.26" height="32.26" fill="#000000"/><path d="M 709.66 354.83 A 32.26 32.26 0 0 0 741.92 387.09 L 741.92 379.025 A 24.195 24.195 0 0 1 717.725 354.83" fill="#000000"/><rect x="741.91" y="354.83" width="32.26" height="32.26" fill="#000000"/><path d="M 741.91 387.09 A 32.26 32.26 0 0 0 774.17 354.83 L 766.105 354.83 A 24.195 24.195 0 0 1 741.91 379.025" fill="#fafafa"/><rect x="774.1714285714286" y="322.5714285714286" width="64.51428571428572" height="64.51428571428572" fill="#ffffff"/><rect x="774.17" y="322.57" width="32.26" height="32.26" fill="#000000"/><path d="M 774.17 322.57 A 32.26 32.26 0 0 1 806.43 354.83 L 774.17 354.83" fill="#000000"/><rect x="806.43" y="322.57" width="32.26" height="32.26" fill="#000000"/><path d="M 806.43 354.83 A 32.26 32.26 0 0 1  838.6899999999999 322.57 L 838.6899999999999 354.83" fill="#000000"/><rect x="774.17" y="354.83" width="32.26" height="32.26" fill="#000000"/><path d="M 774.17 387.09 A 32.26 32.26 0 0 0 806.43 354.83 L 774.17 354.83" fill="#fafafa"/><rect x="806.43" y="354.83" width="32.26" height="32.26" fill="#000000"/><path d="M 806.43 354.83 A 32.26 32.26 0 0 0 838.6899999999999 387.09 L 838.6899999999999 354.83" fill="#fafafa"/><rect x="0" y="387.09" width="64.51" height="64.51" fill="#000000"/><polygon points="0,387.09 64.51,451.59999999999997 0,451.59999999999997" fill="#000000"/><rect x="64.51428571428572" y="387.0857142857143" width="64.51428571428572" height="64.51428571428572" fill="#ffffff"/><rect x="64.51" y="387.09" width="32.26" height="32.26" fill="#000000"/><polygon points="96.77000000000001,387.09 96.77000000000001,419.34999999999997 64.51,419.34999999999997" fill="#fafafa"/><rect x="96.77" y="387.09" width="32.26" height="32.26" fill="#000000"/><polygon points="96.77,387.09 129.03,419.34999999999997 96.77,419.34999999999997" fill="#fafafa"/><rect x="64.51" y="419.34" width="32.26" height="32.26" fill="#000000"/><polygon points="64.51,419.34 96.77000000000001,419.34 64.51,451.59999999999997" fill="#000000"/><rect x="96.77" y="419.34" width="32.26" height="32.26" fill="#000000"/><polygon points="96.77,419.34 129.03,419.34 129.03,451.59999999999997" fill="#000000"/><rect x="129.03" y="387.09" width="64.51" height="64.51" fill="#000000"/><polygon points="129.03,387.09 193.54000000000002,451.59999999999997 129.03,451.59999999999997" fill="#fafafa"/><rect x="193.54" y="387.09" width="64.51" height="64.51" fill="#fafafa"/><polygon points="193.54,387.09 258.05,387.09 258.05,451.59999999999997" fill="#fafafa"/><rect x="258.0571428571429" y="387.0857142857143" width="64.51428571428572" height="64.51428571428572" fill="#ffffff"/><rect x="258.06" y="387.09" width="32.26" height="32.26" fill="#fafafa"/><polygon points="290.32,387.09 290.32,419.34999999999997 258.06,419.34999999999997" fill="#fafafa"/><rect x="290.31" y="387.09" width="32.26" height="32.26" fill="#000000"/><polygon points="290.31,387.09 322.57,419.34999999999997 290.31,419.34999999999997" fill="#000000"/><rect x="258.06" y="419.34" width="32.26" height="32.26" fill="#fafafa"/><polygon points="258.06,419.34 290.32,419.34 290.32,451.59999999999997" fill="#000000"/><rect x="290.31" y="419.34" width="32.26" height="32.26" fill="#fafafa"/><polygon points="290.31,419.34 322.57,419.34 290.31,451.59999999999997" fill="#fafafa"/><rect x="322.57" y="387.09" width="64.51" height="64.51" fill="#fafafa"/><polygon points="322.57,387.09 387.08,451.59999999999997 322.57,451.59999999999997" fill="#000000"/><rect x="387.0857142857143" y="387.0857142857143" width="64.51428571428572" height="64.51428571428572" fill="#ffffff"/><rect x="387.09" y="387.09" width="32.26" height="32.26" fill="#fafafa"/><path d="M 387.09 419.34999999999997 A 32.26 32.26 0 0 1 419.34999999999997 387.09 L 419.34999999999997 395.155 A 24.195 24.195 0 0 0 395.155 419.34999999999997" fill="#000000"/><rect x="419.34" y="387.09" width="32.26" height="32.26" fill="#000000"/><path d="M 419.34 387.09 A 32.26 32.26 0 0 1 451.59999999999997 419.34999999999997 L 443.53499999999997 419.34999999999997 A 24.195 24.195 0 0 0 419.34 395.155" fill="#000000"/><rect x="387.09" y="419.34" width="32.26" height="32.26" fill="#000000"/><path d="M 387.09 419.34 A 32.26 32.26 0 0 0 419.34999999999997 451.59999999999997 L 419.34999999999997 443.53499999999997 A 24.195 24.195 0 0 1 395.155 419.34" fill="#fafafa"/><rect x="419.34" y="419.34" width="32.26" height="32.26" fill="#fafafa"/><path d="M 419.34 451.59999999999997 A 32.26 32.26 0 0 0 451.59999999999997 419.34 L 443.53499999999997 419.34 A 24.195 24.195 0 0 1 419.34 443.53499999999997" fill="#000000"/><rect x="451.6" y="387.0857142857143" width="64.51428571428572" height="64.51428571428572" fill="#ffffff"/><rect x="451.6" y="387.09" width="32.26" height="32.26" fill="#000000"/><polygon points="483.86,387.09 483.86,419.34999999999997 451.6,419.34999999999997" fill="#fafafa"/><rect x="483.86" y="387.09" width="32.26" height="32.26" fill="#000000"/><polygon points="483.86,387.09 516.12,387.09 483.86,419.34999999999997" fill="#000000"/><rect x="451.6" y="419.34" width="32.26" height="32.26" fill="#000000"/><polygon points="451.6,419.34 483.86,419.34 483.86,451.59999999999997" fill="#fafafa"/><rect x="483.86" y="419.34" width="32.26" height="32.26" fill="#000000"/><polygon points="483.86,419.34 516.12,451.59999999999997 483.86,451.59999999999997" fill="#000000"/><rect x="516.11" y="387.09" width="64.51" height="64.51" fill="#000000"/><rect x="516.11" y="387.09" width="64.51" height="64.51" fill="#fafafa"/><rect x="580.6285714285715" y="387.0857142857143" width="64.51428571428572" height="64.51428571428572" fill="#ffffff"/><rect x="580.63" y="387.09" width="32.26" height="32.26" fill="#000000"/><circle cx="596.76" cy="403.21999999999997" r="16.13" fill="#000000"/><rect x="612.89" y="387.09" width="32.26" height="32.26" fill="#000000"/><rect x="612.89" y="387.09" width="32.26" height="32.26" fill="#fafafa"/><rect x="580.63" y="419.34" width="32.26" height="32.26" fill="#fafafa"/><circle cx="596.76" cy="435.46999999999997" r="16.13" fill="#000000"/><rect x="612.89" y="419.34" width="32.26" height="32.26" fill="#000000"/><rect x="612.89" y="419.34" width="32.26" height="32.26" fill="#fafafa"/><rect x="645.1428571428572" y="387.0857142857143" width="64.51428571428572" height="64.51428571428572" fill="#ffffff"/><rect x="645.14" y="387.09" width="32.26" height="32.26" fill="#000000"/><polygon points="677.4,387.09 677.4,419.34999999999997 645.14,419.34999999999997" fill="#fafafa"/><rect x="677.4" y="387.09" width="32.26" height="32.26" fill="#fafafa"/><polygon points="677.4,387.09 709.66,419.34999999999997 677.4,419.34999999999997" fill="#000000"/><rect x="645.14" y="419.34" width="32.26" height="32.26" fill="#fafafa"/><polygon points="645.14,419.34 677.4,419.34 645.14,451.59999999999997" fill="#000000"/><rect x="677.4" y="419.34" width="32.26" height="32.26" fill="#fafafa"/><polygon points="677.4,419.34 709.66,419.34 709.66,451.59999999999997" fill="#000000"/><rect x="709.657142857143" y="387.0857142857143" width="64.51428571428572" height="64.51428571428572" fill="#ffffff"/><rect x="709.66" y="387.09" width="32.26" height="32.26" fill="#000000"/><polygon points="741.92,387.09 741.92,419.34999999999997 709.66,419.34999999999997" fill="#000000"/><rect x="741.91" y="387.09" width="32.26" height="32.26" fill="#000000"/><polygon points="741.91,387.09 774.17,419.34999999999997 741.91,419.34999999999997" fill="#fafafa"/><rect x="709.66" y="419.34" width="32.26" height="32.26" fill="#fafafa"/><polygon points="709.66,419.34 741.92,419.34 709.66,451.59999999999997" fill="#fafafa"/><rect x="741.91" y="419.34" width="32.26" height="32.26" fill="#000000"/><polygon points="741.91,419.34 774.17,419.34 774.17,451.59999999999997" fill="#fafafa"/><rect x="774.17" y="387.09" width="64.51" height="64.51" fill="#000000"/><path d="M 774.17 451.59999999999997 A 64.51 64.51 0 0 1  838.68 387.09 L 774.17 451.59999999999997 A 64.51 64.51 0 0 0 838.68 387.09" fill="#fafafa"/></g></svg>